<?xml version="1.0" encoding="UTF-8"?>
<svg version="1.1" xmlns="http://www.w3.org/2000/svg" width="382" height="374">
<path d="M0 0 C-0.56571354 0.65655421 -0.56571354 0.65655421 -1.14285564 1.32637215 C-4.41098602 5.12781874 -7.63252241 8.96257684 -10.82543945 12.82763672 C-17.11359998 20.36568466 -23.63344776 27.6816686 -30.3125 34.875 C-30.90935356 35.51854809 -31.50620712 36.16209618 -32.12114716 36.82514572 C-46.56474997 52.26444435 -59.2521703 64.60313222 -81.09718323 65.86505127 C-90.78366604 65.99285658 -100.60210976 65.24894191 -110.14778137 63.57170105 C-112.86907599 63.13271021 -115.25307778 62.76146255 -118 63 C-120.38657144 64.75851072 -121.3862071 66.44052039 -123 69 C-123.66 69 -124.32 69 -125 69 C-125 69.66 -125 70.32 -125 71 C-126.375 72.625 -126.375 72.625 -128 74 C-128.66 74 -129.32 74 -130 74 C-130.226875 74.556875 -130.45375 75.11375 -130.6875 75.6875 C-132.36718835 78.6469509 -134.54133285 80.66126784 -137 83 C-137.556875 83.598125 -138.11375 84.19625 -138.6875 84.8125 C-140 86 -140 86 -142 86 C-142.226875 86.5775 -142.45375 87.155 -142.6875 87.75 C-144.34400513 90.58972308 -146.42567988 91.95224536 -149 94 C-150.60982311 95.83132212 -152.14927029 97.70198591 -153.66796875 99.609375 C-154.10753906 100.06828125 -154.54710937 100.5271875 -155 101 C-155.66 101 -156.32 101 -157 101 C-157.4021875 101.8971875 -157.4021875 101.8971875 -157.8125 102.8125 C-158.99917406 104.99847854 -160.09599113 106.41332594 -162 108 C-162.66 108 -163.32 108 -164 108 C-164.23460937 108.57234375 -164.46921875 109.1446875 -164.7109375 109.734375 C-166.29406585 112.51684301 -168.1991525 114.17070214 -170.625 116.25 C-171.44226563 116.95640625 -172.25953125 117.6628125 -173.1015625 118.390625 C-174.04128906 119.18726563 -174.04128906 119.18726563 -175 120 C-174.42314832 123.63522544 -173.05987702 125.30521517 -170.46484375 127.86328125 C-169.73716797 128.58580078 -169.00949219 129.30832031 -168.25976562 130.05273438 C-167.11024414 131.17131836 -167.11024414 131.17131836 -165.9375 132.3125 C-165.19822266 133.04662109 -164.45894531 133.78074219 -163.69726562 134.53710938 C-160.26956798 137.91682525 -156.84934388 141.12741402 -153.07421875 144.11328125 C-149.9443146 146.76382728 -147.92424874 149.57793868 -145.80175781 153.0791626 C-139.40539885 163.40897911 -131.70122758 172.73109915 -120 177 C-95.25521264 182.65367843 -67.12529528 179.38155707 -42 178 C-42 173.05 -42 168.1 -42 163 C-44.11003418 163.01047363 -46.22006836 163.02094727 -48.39404297 163.03173828 C-55.35500013 163.06483439 -62.31596071 163.08695219 -69.27697563 163.10362434 C-73.4986575 163.11407464 -77.72025895 163.12825645 -81.94189453 163.15087891 C-86.01377277 163.17256303 -90.08557353 163.18455923 -94.15750504 163.18975449 C-95.71329087 163.19345824 -97.26907232 163.20069046 -98.82482529 163.21146011 C-100.99903374 163.22591638 -103.17291942 163.22798044 -105.34716797 163.22705078 C-106.58626923 163.231492 -107.82537048 163.23593323 -109.10202026 163.24050903 C-112 163 -112 163 -114 161 C-114 142.85 -114 124.7 -114 106 C-71.1 106 -28.2 106 16 106 C16 149.89 16 193.78 16 239 C-24.22690627 240.6524244 -24.22690627 240.6524244 -41.36132812 241.00195312 C-53.10087289 241.24338549 -64.82800956 241.52491332 -76.55688477 242.09301758 C-148.06655374 245.49033398 -148.06655374 245.49033398 -168.41128254 227.13080883 C-176.28618475 219.68765426 -182.99808032 211.15016208 -189.03443909 202.17710876 C-191.34892479 198.76738676 -193.62870649 196.42395015 -197 194 C-198.21502953 192.78110329 -198.21502953 192.78110329 -199.4546051 191.5375824 C-202.07348715 188.9267384 -204.82865613 186.6937648 -207.72631836 184.39868164 C-223.41459174 171.36348974 -231.20183611 159.0388841 -233.11337566 138.54224968 C-233.42474994 134.17447339 -233.52384098 129.81530195 -233.5625 125.4375 C-233.57458622 124.54303665 -233.58667244 123.6485733 -233.59912491 122.727005 C-233.8332677 84.47646552 -217.1442465 56.52782982 -191.19436646 29.47653198 C-141.84548701 -20.00566863 -63.57434511 -6.85553134 0 0 Z " fill="#D38D3A" transform="translate(293,45)"/>
<path d="M0 0 C-1.35229617 1.62969025 -2.7138217 3.2522766 -4.11088085 4.84376049 C-5.43852676 6.35913477 -6.7330366 7.90387088 -8.00207233 9.46865559 C-13.38398221 15.61587511 -13.38398221 15.61587511 -17.60385704 16.61893272 C-20.59582776 16.65184583 -23.41806372 16.38647965 -26.38549805 16.00268555 C-28.68657739 15.79609891 -30.98776088 15.59066989 -33.28903198 15.38623047 C-34.50340816 15.26141296 -35.71778435 15.13659546 -36.96895981 15.00799561 C-43.53460076 14.36527864 -50.11597211 13.9664052 -56.70043945 13.57495117 C-57.3878399 13.53358182 -58.07524035 13.49221246 -58.78347111 13.44958949 C-119.01937009 9.8689778 -119.01937009 9.8689778 -171.43890381 36.36130333 C-194.53348444 57.33768332 -215.03796293 84.62040395 -217.2934103 116.70175171 C-218.34021544 140.06355888 -211.64638242 158.2990333 -195.95420837 175.54856873 C-186.07283826 186.07468686 -175.00606718 195.20798944 -163.578125 203.99191284 C-159.05124167 207.51787698 -154.60584985 211.06703225 -150.92920876 215.49261951 C-146.51220226 220.61604662 -143.29023149 223.60394181 -136.40658569 224.24050903 C-133.88134092 224.28681339 -131.35472379 224.27904873 -128.82958984 224.22705078 C-127.42908981 224.23410682 -126.02860616 224.24555859 -124.62817383 224.2610321 C-120.8551659 224.29043267 -117.08491253 224.25893429 -113.3121295 224.21586847 C-109.35893143 224.1813065 -105.40604728 224.20361401 -101.45278931 224.21969604 C-93.97993602 224.24155395 -86.50818221 224.21282215 -79.0354811 224.165573 C-68.92853213 224.10462235 -58.82173551 224.12250836 -48.71466255 224.13580322 C-32.80913786 224.15466174 -16.90594641 224.06878685 -1 224 C-1 190.67 -1 157.34 -1 123 C-43.05231784 117.94204128 -43.05231784 117.94204128 -81.71875 132.234375 C-91.13949185 140.7799045 -101.25344519 151.50689038 -107 163 C-109.375 163.125 -109.375 163.125 -112 163 C-112.66 162.34 -113.32 161.68 -114 161 C-114 142.85 -114 124.7 -114 106 C-71.1 106 -28.2 106 16 106 C16 149.89 16 193.78 16 239 C-24.22690627 240.6524244 -24.22690627 240.6524244 -41.36132812 241.00195312 C-53.10087289 241.24338549 -64.82800956 241.52491332 -76.55688477 242.09301758 C-148.06655374 245.49033398 -148.06655374 245.49033398 -168.41128254 227.13080883 C-176.28618475 219.68765426 -182.99808032 211.15016208 -189.03443909 202.17710876 C-191.34892479 198.76738676 -193.62870649 196.42395015 -197 194 C-198.21502953 192.78110329 -198.21502953 192.78110329 -199.4546051 191.5375824 C-202.07348715 188.9267384 -204.82865613 186.6937648 -207.72631836 184.39868164 C-223.41459174 171.36348974 -231.20183611 159.0388841 -233.11337566 138.54224968 C-233.42474994 134.17447339 -233.52384098 129.81530195 -233.5625 125.4375 C-233.57458622 124.54303665 -233.58667244 123.6485733 -233.59912491 122.727005 C-233.8332677 84.47646552 -217.1442465 56.52782982 -191.19436646 29.47653198 C-141.84548701 -20.00566863 -63.57434511 -6.85553134 0 0 Z " fill="#1A1918" transform="translate(293,45)"/>
<path d="M0 0 C-4.23592503 5.10765427 -8.70966868 9.69667085 -13.55078125 14.2265625 C-14.98668567 15.60113299 -16.42088023 16.97749147 -17.85351562 18.35546875 C-20.08189642 20.49767993 -22.31677361 22.62896701 -24.58227539 24.73193359 C-35.11270565 33.89669173 -35.11270565 33.89669173 -39.48046875 46.5234375 C-39.39290196 49.5839418 -39.39290196 49.5839418 -39 52 C-39.33 52 -39.66 52 -40 52 C-40 48.04 -40 44.08 -40 40 C-61.45 40 -82.9 40 -105 40 C-82.11035643 -5.77928713 -44.45047297 -4.6790592 0 0 Z " fill="#A76E41" transform="translate(291,168)"/>
<path d="M0 0 C1.9690813 7.7338333 2.73485766 15.38529828 0 23 C-6.62527217 33.40052291 -17.34369612 42.45672056 -27 50 C-27.66 50 -28.32 50 -29 50 C-29.226875 50.5775 -29.45375 51.155 -29.6875 51.75 C-31.34400513 54.58972308 -33.42567988 55.95224536 -36 58 C-37.60982311 59.83132212 -39.14927029 61.70198591 -40.66796875 63.609375 C-41.32732422 64.29773438 -41.32732422 64.29773438 -42 65 C-42.66 65 -43.32 65 -44 65 C-44.268125 65.598125 -44.53625 66.19625 -44.8125 66.8125 C-45.99917406 68.99847854 -47.09599113 70.41332594 -49 72 C-49.66 72 -50.32 72 -51 72 C-51.268125 72.639375 -51.53625 73.27875 -51.8125 73.9375 C-53 76 -53 76 -56 77 C-57.66666667 75.33333333 -59.33333333 73.66666667 -61 72 C-61.598125 71.443125 -62.19625 70.88625 -62.8125 70.3125 C-64 69 -64 69 -64 67 C-64.66 67 -65.32 67 -66 67 C-64.34930283 62.74974579 -61.17950607 59.90585269 -58.00561523 56.76269531 C-57.39245453 56.14763626 -56.77929382 55.53257721 -56.14755249 54.89888 C-54.12275103 52.87037831 -52.09084749 50.84915843 -50.05859375 48.828125 C-48.6510078 47.42173106 -47.2437912 46.01496737 -45.83692932 44.60784912 C-42.8902197 41.6627029 -39.94018172 38.72094592 -36.98754883 35.78173828 C-33.19353477 32.00475282 -29.40617606 28.22117868 -25.62104702 24.43529129 C-22.71754828 21.53206372 -19.81145649 18.63144391 -16.90446663 15.73171234 C-15.50634532 14.33678338 -14.10883783 12.94123893 -12.71194267 11.54508209 C-10.76546569 9.60076048 -8.81573979 7.65976019 -6.86499023 5.71972656 C-6.28263107 5.13691422 -5.70027191 4.55410187 -5.1002655 3.95362854 C-1.11447635 0 -1.11447635 0 0 0 Z " fill="#171717" transform="translate(309,51)"/>
<path d="M0 0 C0.66 0.33 1.32 0.66 2 1 C2 1.99 2 2.98 2 4 C4.47741143 6.76887159 7.11695963 9.0950297 10 11.4375 C13.07903881 14.06751232 15.45078401 16.8625034 18 20 C19.6436814 21.68933922 21.3142876 23.35259924 23 25 C23.74121094 25.763125 24.48242188 26.52625 25.24609375 27.3125 C26.05175781 28.1375 26.85742188 28.9625 27.6875 29.8125 C28.45449219 30.60269531 29.22148438 31.39289063 30.01171875 32.20703125 C31.8013283 34.22322996 31.8013283 34.22322996 34 34 C32.81293358 37.56119925 30.99883877 38.79026184 28.16796875 41.125 C23.87822934 44.83504489 19.97918324 48.96324016 16 53 C14.33333333 54.66666667 12.66666667 56.33333333 11 58 C10.04638409 58.96435855 9.09327355 59.92921706 8.140625 60.89453125 C7.17709568 61.86719973 6.21355395 62.83985592 5.25 63.8125 C4.75628906 64.31458984 4.26257813 64.81667969 3.75390625 65.33398438 C2.52139399 66.5749385 1.26294465 67.79003122 0 69 C-0.33 69 -0.66 69 -1 69 C-1.02312589 60.1511761 -1.04091634 51.30236253 -1.05181217 42.45351505 C-1.05704046 38.34505715 -1.06413713 34.23661986 -1.07543945 30.12817383 C-1.08627025 26.16653172 -1.09227724 22.20490948 -1.09487724 18.24325371 C-1.09673114 16.72851689 -1.1003511 15.21378121 -1.10573006 13.69905281 C-1.11294307 11.58458187 -1.11399083 9.47019406 -1.11352539 7.35571289 C-1.115746 6.14992081 -1.11796661 4.94412872 -1.12025452 3.70179749 C-1 1 -1 1 0 0 Z " fill="#A86F41" transform="translate(83,131)"/>
<path d="M0 0 C3.69546902 1.3979115 6.37811718 4.08679687 9 7 C8 10 8 10 6.1875 10.9375 C4 11 4 11 1.875 9.125 C1.25625 8.42375 0.6375 7.7225 0 7 C-3.19598065 5.40200967 -6.52322756 5.63226445 -10 6 C-14.16960522 7.76049998 -16.27128428 9.81468826 -18 14 C-18.56747002 18.27545904 -18.45277479 21.84290886 -16.875 25.875 C-13.7685724 29.39561795 -10.6093583 30.76530191 -6 31.4375 C-2.11423889 30.8708265 -0.02207739 29.47260877 3 27 C3.66 25.68 4.32 24.36 5 23 C1.37 23 -2.26 23 -6 23 C-6 21.02 -6 19.04 -6 17 C-0.39 17 5.22 17 11 17 C10.397882 28.13918306 10.397882 28.13918306 6 33 C1.20143869 36.6469066 -2.48468045 37.65240756 -8.50390625 37.38671875 C-13.82954443 36.56161988 -17.6413967 34.39435602 -21.375 30.5625 C-24.84214603 25.09507742 -25.85808474 20.42490946 -25 14 C-23.1310615 8.06399646 -19.98825412 4.57853013 -15 1 C-10.58784388 -1.20607806 -4.80229277 -0.43232319 0 0 Z " fill="#141414" transform="translate(91,295)"/>
<path d="M0 0 C3.01125 -0.061875 6.0225 -0.12375 9.125 -0.1875 C10.06230957 -0.21481201 10.99961914 -0.24212402 11.96533203 -0.27026367 C17.97209779 -0.3297556 22.25675252 0.53107727 26.875 4.6875 C28.84433645 8.73558048 28.6136972 12.99153642 27.3125 17.25 C25.54142889 19.61142815 23.31640979 21.18878459 21 23 C21.5775 23.85464844 22.155 24.70929688 22.75 25.58984375 C23.50012058 26.70564811 24.25011404 27.82153795 25 28.9375 C25.3815625 29.50146484 25.763125 30.06542969 26.15625 30.64648438 C29 34.88671875 29 34.88671875 29 36 C25.7734375 36.37109375 25.7734375 36.37109375 22 36 C19.6015625 33.41015625 19.6015625 33.41015625 17.625 30.0625 C16.95726562 28.96035156 16.28953125 27.85820312 15.6015625 26.72265625 C15.07304687 25.82417969 14.54453125 24.92570312 14 24 C12.03177114 22.03177114 8.65191291 22.33751619 6 22 C6 26.62 6 31.24 6 36 C4.02 36 2.04 36 0 36 C0 24.12 0 12.24 0 0 Z M6 6 C6 9.63 6 13.26 6 17 C8.26921536 17.13489391 10.5407067 17.23193995 12.8125 17.3125 C14.07707031 17.37050781 15.34164063 17.42851562 16.64453125 17.48828125 C20.14301397 17.35805832 20.14301397 17.35805832 21.984375 14.6484375 C23.26070349 12.03544056 23.26070349 12.03544056 22.4375 9.3125 C20.82327316 6.71570031 19.87053157 5.95684386 17 5 C13.25838897 5 9.71046443 5.51338171 6 6 Z " fill="#131111" transform="translate(247,295)"/>
<path d="M0 0 C4.31633181 3.18586395 7.91120739 6.79612218 9.625 11.9375 C10.36771668 18.79240973 9.67742623 24.2535775 5.625 29.9375 C1.33199923 34.12042383 -2.7344952 36.00617042 -8.6875 36.3125 C-14.88594739 36.15753882 -19.45307299 33.91000404 -23.75 29.5 C-27.44041028 23.68050686 -28.05582272 18.75670818 -27.375 11.9375 C-25.57005572 6.41649398 -21.92877265 3.30619447 -17.375 -0.0625 C-12.3969279 -2.55153605 -5.14098912 -1.61845954 0 0 Z M-18.375 6.9375 C-21.04459057 10.46517325 -22.11034551 13.52659178 -22.375 17.9375 C-21.67584814 22.36546178 -20.78714017 24.48610839 -17.75 27.8125 C-13.4935358 30.49249598 -11.39408878 30.9375 -6.375 30.9375 C-2.72874523 29.56155481 0.18590931 28.01845666 2.625 24.9375 C4.29316613 19.93300161 4.5228967 14.90432135 2.3125 10.0625 C-0.84355386 6.07361866 -0.84355386 6.07361866 -5.375 3.9375 C-10.68085376 3.59518685 -14.11295828 3.40609401 -18.375 6.9375 Z " fill="#131212" transform="translate(231.375,296.0625)"/>
<path d="M0 0 C8.25 0 16.5 0 25 0 C25 1.98 25 3.96 25 6 C19.06 6 13.12 6 7 6 C6.67 8.97 6.34 11.94 6 15 C11.61 15 17.22 15 23 15 C23.33 16.65 23.66 18.3 24 20 C18.06 20 12.12 20 6 20 C6 23.63 6 27.26 6 31 C12.6 31 19.2 31 26 31 C26 32.98 26 34.96 26 37 C17.42 37 8.84 37 0 37 C0 24.79 0 12.58 0 0 Z " fill="#181516" transform="translate(282,295)"/>
<path d="M0 0 C0 33 0 66 0 100 C-46.53 100 -93.06 100 -141 100 C-141 99.67 -141 99.34 -141 99 C-94.8 99 -48.6 99 -1 99 C-1 67.98 -1 36.96 -1 5 C-5.34389465 8.61991221 -8.28945855 11.36020953 -11.60546875 15.64453125 C-13 17 -13 17 -16 17 C-16 17.66 -16 18.32 -16 19 C-17.43482897 20.23462027 -18.87549648 21.46342675 -20.3515625 22.6484375 C-23.76990473 25.45115412 -26.67514326 28.61017191 -29.5 32 C-31.86637715 34.83965258 -34.35150123 37.42507064 -37 40 C-39.19141782 42.19141782 -38.45133519 47.05417422 -38.62109375 50.01953125 C-39 53 -39 53 -41 57 C-66.74 57 -92.48 57 -119 57 C-119.66 55.68 -120.32 54.36 -121 53 C-120.34 53.33 -119.68 53.66 -119 54 C-116.52927491 54.12209616 -114.08482792 54.18562086 -111.61279297 54.20532227 C-110.85172241 54.21522186 -110.09065186 54.22512146 -109.30651855 54.23532104 C-106.78510676 54.26696678 -104.26367612 54.29170557 -101.7421875 54.31640625 C-99.99626164 54.33697313 -98.25034078 54.35796953 -96.50442505 54.37937927 C-91.90460258 54.43462746 -87.30473497 54.4840246 -82.70483398 54.53222656 C-78.01281711 54.58242155 -73.32086595 54.63811805 -68.62890625 54.69335938 C-59.41932694 54.80097454 -50.20969063 54.90241204 -41 55 C-41.02751343 53.96210327 -41.05502686 52.92420654 -41.08337402 51.8548584 C-41.08327586 43.14364663 -40.3728468 37.66500971 -33.96618652 31.24108887 C-33.12140747 30.47059204 -32.27662842 29.70009521 -31.40625 28.90625 C-30.54439087 28.06324341 -29.68253174 27.22023682 -28.79455566 26.35168457 C-26.06314126 23.69692236 -23.28389553 21.09955715 -20.5 18.5 C-18.63074786 16.6974953 -16.76482447 14.89153183 -14.90234375 13.08203125 C-1.35933656 0 -1.35933656 0 0 0 Z " fill="#CD924C" transform="translate(292,168)"/>
<path d="M0 0 C2.90805852 1.53157749 5.12486607 3.28633787 7 6 C7 6.99 7 7.98 7 9 C4.75 9.75 4.75 9.75 2 10 C1.46375 9.360625 0.9275 8.72125 0.375 8.0625 C-3.4987681 4.69843823 -8.07713232 5.6944427 -13 6 C-13 7.98 -13 9.96 -13 12 C-11.64652311 12.46036629 -10.292173 12.91816537 -8.9375 13.375 C-8.11765625 13.65214844 -7.2978125 13.92929687 -6.453125 14.21484375 C-4.39017343 14.87511965 -2.29088107 15.42027515 -0.1875 15.9375 C3.89430184 17.29810061 6.07970482 19.15940964 8 23 C8.41197049 27.63466801 7.95567673 30.35466537 5 34 C-0.01303423 37.5458047 -5.07237406 37.81162878 -11 37 C-14.04019907 36.10612087 -16.54664306 35.02401948 -19 33 C-20.5 29.75 -20.5 29.75 -21 27 C-19.35 26.34 -17.7 25.68 -16 25 C-15.7525 25.61875 -15.505 26.2375 -15.25 26.875 C-13.71177504 29.48998244 -12.87649576 30.06708246 -10 31 C-5.74410043 31.30399283 -2.64823039 31.33486745 1 29 C1 27.02 1 25.04 1 23 C-0.02480469 22.75765625 -1.04960937 22.5153125 -2.10546875 22.265625 C-3.466314 21.92775997 -4.82698197 21.58918031 -6.1875 21.25 C-7.19780273 21.01410156 -7.19780273 21.01410156 -8.22851562 20.7734375 C-12.67524302 19.64548714 -15.75955736 18.27084079 -19 15 C-20.2251117 12.32210098 -20.39120722 9.91169948 -20 7 C-15.80408401 -0.93130462 -8.07906507 -1.12440596 0 0 Z " fill="#121111" transform="translate(154,295)"/>
<path d="M0 0 C0.33 0 0.66 0 1 0 C0.99920441 1.02872726 0.99840881 2.05745453 0.99758911 3.11735535 C0.99398621 12.81397279 1.02177742 22.5100602 1.0802784 32.20650768 C1.10934635 37.19159104 1.12736575 42.17620362 1.12011719 47.16137695 C1.11352807 51.97279477 1.13598495 56.78328198 1.17855453 61.59450722 C1.18969324 63.42966715 1.19037898 65.26492138 1.18042374 67.10008812 C1.16825968 69.67216733 1.19331185 72.24140224 1.22705078 74.81323242 C1.21482986 75.57136734 1.20260895 76.32950226 1.1900177 77.11061096 C1.25825917 79.99902549 1.40356693 82.30262181 3.32754135 84.55222511 C5.12865819 86.09560729 5.12865819 86.09560729 8 88 C9.07780925 89.15479562 10.12427303 90.34030066 11.125 91.5625 C14.35191098 95.3152246 17.689295 98.93885451 21.125 102.5 C21.62789551 103.04084229 22.13079102 103.58168457 22.64892578 104.13891602 C25.03834278 106.58219121 26.41159961 107.92945608 29.8671875 108.34375 C30.92292969 108.17359375 30.92292969 108.17359375 32 108 C32.66 110.31 33.32 112.62 34 115 C34.33 115 34.66 115 35 115 C35 112.69 35 110.38 35 108 C37 107 37 107 40 107 C40.33 106.34 40.66 105.68 41 105 C46.25687856 106.29472083 49.26398026 108.75885386 52.875 112.625 C53.37257812 113.140625 53.87015625 113.65625 54.3828125 114.1875 C55.5979334 115.44935632 56.80031125 116.72346286 58 118 C57.01 118.495 57.01 118.495 56 119 C55.01 118.67 54.02 118.34 53 118 C52.86925591 121.87742742 52.86925591 121.87742742 53.625 125.125 C53.810625 126.548125 53.810625 126.548125 54 128 C53.34 128.66 52.68 129.32 52 130 C51.34 129.67 50.68 129.34 50 129 C50 128.01 50 127.02 50 126 C49.34 126 48.68 126 48 126 C47.505 127.485 47.505 127.485 47 129 C33.1292505 117.24001673 33.1292505 117.24001673 27.71702576 111.63621521 C24.98933444 108.98965166 22.15696562 106.82486558 19.09790039 104.57446289 C9.60965404 97.119532 0.27939176 89.11825769 -1.7544651 76.68407249 C-2.98448362 65.60708665 -2.36895348 54.44100467 -1.71661377 43.34417725 C-1.45686335 38.44513004 -1.34587469 33.54267542 -1.22070312 28.63867188 C-0.95568483 19.08373776 -0.53149207 9.54357278 0 0 Z " fill="#1A1817" transform="translate(66,125)"/>
<path d="M0 0 C3.5625 1.8125 3.5625 1.8125 6 4 C6.928125 4.804375 6.928125 4.804375 7.875 5.625 C9 7 9 7 9 9 C6.1875 9.6875 6.1875 9.6875 3 10 C1.25 8.625 1.25 8.625 0 7 C-3.46250243 5.26874879 -7.21408229 5.52184776 -11 6 C-14.46868763 8.06645221 -16.80891972 10.10191909 -18 14 C-18.4477318 19.55187433 -18.29052206 23.28358505 -15 28 C-10.70040678 31.17350928 -7.22496426 31.3518528 -2.125 30.59375 C0.88617093 29.75239342 2.81335614 28.18664386 5 26 C6.32 26.66 7.64 27.32 9 28 C7.50521886 31.80489745 5.30557786 33.66190835 2 36 C-3.77712979 37.92570993 -9.8099294 37.90187619 -15.375 35.3125 C-19.67820218 32.79651486 -22.26731735 30.42701127 -23.75 25.515625 C-25.22288414 18.85082427 -25.62749211 13.32994955 -21.95703125 7.28125 C-16.21739969 -0.29729265 -8.93889023 -1.1280904 0 0 Z " fill="#101010" transform="translate(191,295)"/>
<path d="M0 0 C2.18264961 -0.36914349 2.18264961 -0.36914349 4.94802856 -0.36076355 C6.51718521 -0.36694954 6.51718521 -0.36694954 8.11804199 -0.3732605 C9.27034302 -0.36247467 10.42264404 -0.35168884 11.60986328 -0.34057617 C12.81959808 -0.34101425 14.02933289 -0.34145233 15.27572632 -0.34190369 C18.59803394 -0.34016858 21.91978609 -0.32509732 25.24199533 -0.30418181 C28.71200336 -0.28546021 32.18201835 -0.28366815 35.65206909 -0.28010559 C42.22527769 -0.27077179 48.79833706 -0.24614009 55.37147987 -0.21605712 C62.85382957 -0.18255452 70.33618631 -0.16603755 77.81859231 -0.15097082 C93.21248138 -0.11959158 108.60622146 -0.06680532 124 0 C123.06280291 1.11832809 122.12198826 2.23362511 121.1796875 3.34765625 C120.65616699 3.96906494 120.13264648 4.59047363 119.59326172 5.23071289 C117.59954754 7.44469491 115.39658203 9.23780733 113 11 C112.505 9.515 112.505 9.515 112 8 C112.99 8 113.98 8 115 8 C115 7.01 115 6.02 115 5 C114.01 4.67 113.02 4.34 112 4 C112 3.67 112 3.34 112 3 C74.38 3 36.76 3 -2 3 C-1.34 2.01 -0.68 1.02 0 0 Z " fill="#CA985C" transform="translate(153,61)"/>
<path d="M0 0 C6.27 0 12.54 0 19 0 C18.67 1.32 18.34 2.64 18 4 C14.37 4 10.74 4 7 4 C2.95309083 12.09381833 4.88683008 26.02185305 5 35 C3.35 35 1.7 35 0 35 C0 23.45 0 11.9 0 0 Z " fill="#1C1A1B" transform="translate(247,295)"/>
<path d="M0 0 C3.69848622 2.21909173 5.85412725 3.61299084 8.70703125 6.546875 C9.37669922 7.2275 10.04636719 7.908125 10.73632812 8.609375 C11.42146484 9.31578125 12.10660156 10.0221875 12.8125 10.75 C17.45842686 15.51596516 22.13108814 20.10136806 27.24487305 24.36816406 C29.1048401 26.09747548 30.53702917 27.9294028 32 30 C28.61424976 28.9654652 27.20442007 28.27695622 25.0625 25.375 C24.381875 24.59125 23.70125 23.8075 23 23 C21.00041636 22.95919217 18.99954746 22.95745644 17 23 C15.125 21.125 15.125 21.125 14 19 C14 18.34 14 17.68 14 17 C13.38125 16.814375 12.7625 16.62875 12.125 16.4375 C8.94397134 14.28562767 8.80548053 11.62466237 8 8 C7.01 8.495 7.01 8.495 6 9 C4.06147955 8.91696146 2.12397298 8.80927574 0.1875 8.6875 C-4.13850004 8.53323647 -4.13850004 8.53323647 -7.90234375 10.33203125 C-9.43370723 12.1415438 -9.43370723 12.1415438 -11 15 C-11.99 14.67 -12.98 14.34 -14 14 C-9.38 9.38 -4.76 4.76 0 0 Z " fill="#C9853E" transform="translate(115,167)"/>
<path d="M0 0 C0.33 0 0.66 0 1 0 C0.99920441 1.02872726 0.99840881 2.05745453 0.99758911 3.11735535 C0.99398621 12.81397279 1.02177742 22.5100602 1.0802784 32.20650768 C1.10934635 37.19159104 1.12736575 42.17620362 1.12011719 47.16137695 C1.11352807 51.97279477 1.13598495 56.78328198 1.17855453 61.59450722 C1.18969324 63.42966715 1.19037898 65.26492138 1.18042374 67.10008812 C1.16825968 69.67216733 1.19331185 72.24140224 1.22705078 74.81323242 C1.21482986 75.57136734 1.20260895 76.32950226 1.1900177 77.11061096 C1.25825917 79.99902549 1.40356693 82.30262181 3.32754135 84.55222511 C5.12865819 86.09560729 5.12865819 86.09560729 8 88 C9.07780925 89.15479562 10.12427303 90.34030066 11.125 91.5625 C14.35191098 95.3152246 17.689295 98.93885451 21.125 102.5 C21.62789551 103.04084229 22.13079102 103.58168457 22.64892578 104.13891602 C25.03834278 106.58219121 26.41159961 107.92945608 29.8671875 108.34375 C30.92292969 108.17359375 30.92292969 108.17359375 32 108 C32.309375 109.11375 32.61875 110.2275 32.9375 111.375 C33.82326483 114.7945155 33.82326483 114.7945155 35 117 C32.32137144 115.90870688 30.79425271 114.79154364 28.73788452 112.70809937 C25.94555389 109.9461462 23.02713574 107.70489022 19.88134766 105.35791016 C9.1628566 96.84692689 -0.49231855 88.21322757 -2.12597656 73.99902344 C-2.96875839 63.77034891 -2.41190177 53.50080893 -1.78527832 43.2755127 C-1.51494246 38.38331895 -1.39967183 33.48741607 -1.26953125 28.58984375 C-0.99405463 19.05044171 -0.55302803 9.52707267 0 0 Z " fill="#090909" transform="translate(66,125)"/>
<path d="M0 0 C0 0.33 0 0.66 0 1 C-0.6359204 0.9968576 -1.2718408 0.99371519 -1.92703152 0.99047756 C-17.42747099 0.91698619 -32.92707126 0.8934125 -48.42761898 0.92484188 C-55.92377296 0.93884776 -63.41921848 0.93619261 -70.9152832 0.89379883 C-77.45182583 0.85687443 -83.98750439 0.85173674 -90.52408415 0.88417059 C-93.98295308 0.90023886 -97.44020234 0.90079618 -100.89893913 0.86323357 C-104.76789621 0.82181321 -108.63460717 0.85138932 -112.50366211 0.88647461 C-113.64014694 0.86346786 -114.77663177 0.84046112 -115.94755554 0.8167572 C-122.41995768 0.94318423 -125.61754747 1.93777675 -130.28102112 6.56959534 C-131.55114988 8.02027509 -132.80232423 9.48895018 -134 11 C-134 6.68923627 -132.1370759 4.84980347 -129.29010391 1.74316597 C-124.97735067 -1.53958668 -120.31810945 -1.10014029 -115.08544922 -1.01586914 C-113.31105972 -1.03466125 -113.31105972 -1.03466125 -111.50082397 -1.05383301 C-108.27289032 -1.08010476 -105.04741956 -1.07118184 -101.81955099 -1.04601216 C-98.43451066 -1.02777385 -95.04980679 -1.05409815 -91.66482544 -1.07530212 C-85.98387449 -1.10477358 -80.30354307 -1.10556044 -74.62255859 -1.08569336 C-66.61791513 -1.05773484 -58.61402472 -1.08085153 -50.6094358 -1.11457264 C-39.29164742 -1.15929423 -27.97359667 -1.17979982 -16.65576172 -1.14868164 C-15.54394531 -1.1490593 -14.43212891 -1.14943695 -13.28662109 -1.14982605 C-11.7516951 -1.14304337 -11.7516951 -1.14304337 -10.1857605 -1.13612366 C-8.85680661 -1.13298204 -8.85680661 -1.13298204 -7.50100517 -1.12977695 C-4.91623497 -0.99565344 -2.52171195 -0.5696069 0 0 Z " fill="#2B1602" transform="translate(278,60)"/>
<path d="M0 0 C0.33 0 0.66 0 1 0 C1 3.63 1 7.26 1 11 C2.32 11.33 3.64 11.66 5 12 C4.34 12.66 3.68 13.32 3 14 C4.43657245 14.33730842 5.87430093 14.66969591 7.3125 15 C8.11300781 15.185625 8.91351563 15.37125 9.73828125 15.5625 C12.10695938 16.09495823 12.10695938 16.09495823 15 16 C16.70483565 18.11705843 18.20234832 20.17542686 19.6875 22.4375 C20.10322266 23.04916016 20.51894531 23.66082031 20.94726562 24.29101562 C24 28.82750924 24 28.82750924 24 30 C20.7734375 30.37109375 20.7734375 30.37109375 17 30 C14.6015625 27.41015625 14.6015625 27.41015625 12.625 24.0625 C11.95726562 22.96035156 11.28953125 21.85820312 10.6015625 20.72265625 C10.07304687 19.82417969 9.54453125 18.92570312 9 18 C7.03177114 16.03177114 3.65191291 16.33751619 1 16 C1 20.62 1 25.24 1 30 C-0.98 30 -2.96 30 -5 30 C-5 29.67 -5 29.34 -5 29 C-3.35 29 -1.7 29 0 29 C-0.08378906 27.99582031 -0.16757813 26.99164063 -0.25390625 25.95703125 C-0.92751986 17.17957646 -0.97726033 8.78030823 0 0 Z " fill="#0B0B0B" transform="translate(252,301)"/>
<path d="M0 0 C0.33 0.66 0.66 1.32 1 2 C-0.1446875 3.0828125 -0.1446875 3.0828125 -1.3125 4.1875 C-4.044086 6.83926978 -4.044086 6.83926978 -5.6875 9.8125 C-6.120625 10.534375 -6.55375 11.25625 -7 12 C-7.66 12 -8.32 12 -9 12 C-9 12.66 -9 13.32 -9 14 C-6.36 14.33 -3.72 14.66 -1 15 C-0.34 16.65 0.32 18.3 1 20 C0.34 20 -0.32 20 -1 20 C0.27721526 24.99275057 2.17330957 27.57611908 6 31 C5.67 31.66 5.34 32.32 5 33 C-0.94 27.06 -6.88 21.12 -13 15 C-10.96986589 10.93973179 -8.57604446 8.34542624 -5.375 5.25 C-4.859375 4.74339844 -4.34375 4.23679688 -3.8125 3.71484375 C-2.54616661 2.47196098 -1.2736856 1.23534724 0 0 Z " fill="#C78641" transform="translate(95,187)"/>
<path d="M0 0 C1.423125 0.2784375 1.423125 0.2784375 2.875 0.5625 C5.89868793 1.28686632 5.89868793 1.28686632 8 0 C7.67 1.98 7.34 3.96 7 6 C8.32 6 9.64 6 11 6 C11 6.99 11 7.98 11 9 C11.66 9 12.32 9 13 9 C13 9.66 13 10.32 13 11 C13.78375 11.061875 14.5675 11.12375 15.375 11.1875 C16.24125 11.455625 17.1075 11.72375 18 12 C19.3125 14.5625 19.3125 14.5625 20 17 C22.97 17 25.94 17 29 17 C28.67 18.32 28.34 19.64 28 21 C27.67 21 27.34 21 27 21 C27.66 22.98 28.32 24.96 29 27 C24.65095943 25.34271998 21.90829048 22.0886474 18.75 18.8125 C14.51003432 14.48161425 10.21579218 10.35538089 5.58984375 6.43359375 C3.44266993 4.49744439 1.69719536 2.33364362 0 0 Z M16 9 C16.99 9.33 17.98 9.66 19 10 C18.67 10.66 18.34 11.32 18 12 C17.34 11.01 16.68 10.02 16 9 Z " fill="#C58744" transform="translate(122,241)"/>
<path d="M0 0 C0.61488281 0.0721875 1.22976562 0.144375 1.86328125 0.21875 C3.07564453 0.35796875 3.07564453 0.35796875 4.3125 0.5 C5.11300781 0.5928125 5.91351563 0.685625 6.73828125 0.78125 C9.11896555 1.04813463 9.11896555 1.04813463 12 1 C5.07 7.93 -1.86 14.86 -9 22 C-9 19 -9 19 -7.5 17.3125 C-7.005 16.879375 -6.51 16.44625 -6 16 C-6.33 15.67 -6.66 15.34 -7 15 C-8.24546405 12.50907189 -7.7767578 11.58919267 -7 9 C-4.69 9 -2.38 9 0 9 C0.93380961 4.46859347 0.93380961 4.46859347 0 0 Z " fill="#261A10" transform="translate(122,80)"/>
<path d="M0 0 C5.62303757 4.67466337 10.79741554 9.67765667 15.9375 14.875 C16.71673828 15.65875 17.49597656 16.4425 18.29882812 17.25 C20.20154085 19.16438581 22.10186171 21.08108034 24 23 C22.625 24.5234375 22.625 24.5234375 21 26 C19 25.625 19 25.625 17 25 C16.01 25.33 15.02 25.66 14 26 C14.33 24.68 14.66 23.36 15 22 C14.01 21.67 13.02 21.34 12 21 C12.12375 19.97519531 12.2475 18.95039063 12.375 17.89453125 C11.87227031 12.67347391 9.79511785 11.0338708 6 7.6875 C3.96268065 5.82225154 1.97312759 3.93495696 0 2 C0 1.34 0 0.68 0 0 Z " fill="#C0813C" transform="translate(147,197)"/>
<path d="M0 0 C0 0.66 0 1.32 0 2 C-1.25121643 1.99214478 -1.25121643 1.99214478 -2.52770996 1.98413086 C-10.41343011 1.94173596 -18.29804457 1.93788975 -26.18379974 1.97665405 C-30.23750044 1.99523984 -34.2900947 1.99925246 -38.34375 1.96923828 C-42.26068014 1.94078465 -46.17576871 1.9515553 -50.09260559 1.98880005 C-51.58201223 1.99621018 -53.07155763 1.98981162 -54.56083679 1.96896362 C-63.06110711 1.71387229 -63.06110711 1.71387229 -70.74731445 4.84765625 C-72.71706981 6.8029709 -74.41111766 8.72864363 -76 11 C-76.33 10.34 -76.66 9.68 -77 9 C-76.04578192 7.85073734 -75.08647955 6.70569459 -74.125 5.5625 C-73.32449219 4.60537109 -73.32449219 4.60537109 -72.5078125 3.62890625 C-70.4270787 1.38106689 -69.39605998 1.02337123 -66.3187561 0.84178162 C-65.18054413 0.82623734 -64.04233215 0.81069305 -62.86962891 0.79467773 C-61.58134186 0.77473251 -60.29305481 0.75478729 -58.96572876 0.73423767 C-57.55267466 0.71724611 -56.1396192 0.70036757 -54.7265625 0.68359375 C-53.28168146 0.66301668 -51.83680635 0.64202001 -50.39193726 0.62062073 C-46.58277278 0.56537314 -42.77355344 0.51599569 -38.96429443 0.46777344 C-35.09593633 0.41771198 -31.22766218 0.36186653 -27.359375 0.30664062 C-5.62646068 0 -5.62646068 0 0 0 Z " fill="#2F1C0D" transform="translate(292,166)"/>
<path d="M0 0 C0.66 0.33 1.32 0.66 2 1 C1.525625 1.4125 1.05125 1.825 0.5625 2.25 C-1.14475903 3.86146339 -1.14475903 3.86146339 -1.375 5.9375 C-2.32626529 9.07667547 -4.36729423 10.14513912 -7 12 C-8.2065625 12.61875 -8.2065625 12.61875 -9.4375 13.25 C-12.01258222 15.00859273 -13.15639133 16.42817763 -14.9375 18.9375 C-17.56022165 22.61464918 -20.17492388 24.55195128 -24 27 C-26.75888082 29.57895381 -29.39019482 32.27096514 -32 35 C-32.66 34.67 -33.32 34.34 -34 34 C-22.78 22.78 -11.56 11.56 0 0 Z " fill="#C38B51" transform="translate(150,64)"/>
<path d="M0 0 C4.26607578 3.56957361 8.27613012 7.23221968 12.16796875 11.203125 C14.72985976 13.71585392 17.45365848 16.0201658 20.203125 18.32421875 C22.07674426 20.07157236 23.52511967 21.9105862 25 24 C21.61424976 22.9654652 20.20442007 22.27695622 18.0625 19.375 C17.381875 18.59125 16.70125 17.8075 16 17 C14.00041636 16.95919217 11.99954746 16.95745644 10 17 C8.125 15.125 8.125 15.125 7 13 C7 12.34 7 11.68 7 11 C6.37609375 10.76539063 5.7521875 10.53078125 5.109375 10.2890625 C2.39744059 8.63176925 2.11024003 7.3858401 1.25 4.375 C1.00765625 3.55773437 0.7653125 2.74046875 0.515625 1.8984375 C0.34546875 1.27195313 0.1753125 0.64546875 0 0 Z " fill="#BD803C" transform="translate(122,173)"/>
<path d="M0 0 C0.66 0.66 1.32 1.32 2 2 C0.08322031 8.28277788 -1.56768732 11.26528504 -7 15 C-10.01490557 16.00496852 -12.04181692 16.10335303 -15.1875 16.0625 C-16.53908203 16.04896484 -16.53908203 16.04896484 -17.91796875 16.03515625 C-18.60503906 16.02355469 -19.29210937 16.01195312 -20 16 C-20 15.67 -20 15.34 -20 15 C-16.04 14.34 -12.08 13.68 -8 13 C-8.33 12.34 -8.66 11.68 -9 11 C-9.99 10.67 -10.98 10.34 -12 10 C-11.071875 9.4225 -10.14375 8.845 -9.1875 8.25 C-6.40184158 6.28365288 -4.81261304 4.81962028 -3 2 C-2.67 2.33 -2.34 2.66 -2 3 C-1.34 2.01 -0.68 1.02 0 0 Z " fill="#0F0F0F" transform="translate(100,316)"/>
<path d="M0 0 C0.66 0.33 1.32 0.66 2 1 C-4.6 7.6 -11.2 14.2 -18 21 C-18.33 20.01 -18.66 19.02 -19 18 C-18.34 18 -17.68 18 -17 18 C-16.896875 17.05125 -16.79375 16.1025 -16.6875 15.125 C-16 12 -16 12 -13 10 C-12.01 10 -11.02 10 -10 10 C-9.67 9.01 -9.34 8.02 -9 7 C-8.34 7.33 -7.68 7.66 -7 8 C-7.66 6.35 -8.32 4.7 -9 3 C-7.88625 2.87625 -6.7725 2.7525 -5.625 2.625 C-1.96896323 2.3534187 -1.96896323 2.3534187 0 0 Z " fill="#2C1B0D" transform="translate(108,104)"/>
<path d="M0 0 C6.83277932 -0.43768693 11.58326856 -0.73964001 17 4 C17.61875 4.53625 18.2375 5.0725 18.875 5.625 C20 7 20 7 20 9 C17.1875 9.6875 17.1875 9.6875 14 10 C12.25 8.625 12.25 8.625 11 7 C8.70370006 5.85185003 6.92301914 5.69230191 4.375 5.4375 C3.55773437 5.35371094 2.74046875 5.26992188 1.8984375 5.18359375 C1.27195313 5.12300781 0.64546875 5.06242187 0 5 C0 4.67 0 4.34 0 4 C3.3 3.67 6.6 3.34 10 3 C10 2.34 10 1.68 10 1 C6.7 1 3.4 1 0 1 C0 0.67 0 0.34 0 0 Z " fill="#090909" transform="translate(180,295)"/>
<path d="M0 0 C0.33 0.99 0.66 1.98 1 3 C-2.63 3 -6.26 3 -10 3 C-10 3.66 -10 4.32 -10 5 C-11.96466413 6.06775224 -13.96855359 7.06553465 -16 8 C-16.66 7.67 -17.32 7.34 -18 7 C-17.875 4.6875 -17.875 4.6875 -17 2 C-11.73358261 -2.15769794 -6.22154294 -0.91883997 0 0 Z " fill="#181818" transform="translate(190,296)"/>
<path d="M0 0 C7.92 0 15.84 0 24 0 C24 1.32 24 2.64 24 4 C22.86111328 3.98259766 22.86111328 3.98259766 21.69921875 3.96484375 C20.70535156 3.95582031 19.71148437 3.94679688 18.6875 3.9375 C17.70136719 3.92589844 16.71523438 3.91429687 15.69921875 3.90234375 C12.90036151 3.87670138 12.90036151 3.87670138 10 5 C9.01 4.34 8.02 3.68 7 3 C7.33 2.67 7.66 2.34 8 2 C5.36 1.67 2.72 1.34 0 1 C0 0.67 0 0.34 0 0 Z " fill="#231F22" transform="translate(282,295)"/>
<path d="M0 0 C0.33 0 0.66 0 1 0 C1.1679713 7.36883052 1.32790864 14.73780355 1.48217773 22.10693359 C1.53565045 24.6154376 1.59098374 27.12390265 1.64819336 29.63232422 C1.72995731 33.23135983 1.80509744 36.83048108 1.87890625 40.4296875 C1.90594131 41.55680145 1.93297638 42.68391541 1.96083069 43.84518433 C1.98092697 44.88611237 2.00102325 45.92704041 2.02172852 46.99951172 C2.04171402 47.91884491 2.06169952 48.8381781 2.08229065 49.78536987 C2 52 2 52 1 54 C1.99 54 2.98 54 4 54 C4 54.66 4 55.32 4 56 C4.66 56.33 5.32 56.66 6 57 C1.125 56.125 1.125 56.125 0 55 C-0.0935919 53.28134591 -0.11744611 51.55884256 -0.11352539 49.83764648 C-0.11344986 48.73658066 -0.11337433 47.63551483 -0.11329651 46.50108337 C-0.10813522 45.3031868 -0.10297394 44.10529022 -0.09765625 42.87109375 C-0.0962413 41.65172623 -0.09482635 40.4323587 -0.09336853 39.17604065 C-0.08774967 35.2631693 -0.07519396 31.35035419 -0.0625 27.4375 C-0.05748743 24.79231853 -0.0529241 22.14713617 -0.04882812 19.50195312 C-0.03777411 13.00128274 -0.02101764 6.50064539 0 0 Z " fill="#010101" transform="translate(179,151)"/>
<path d="M0 0 C0 3.95875396 -1.21313946 6.49009536 -3 10 C-3.70125 10.33 -4.4025 10.66 -5.125 11 C-6.053125 11.495 -6.053125 11.495 -7 12 C-7.74751373 15.48254713 -7.74751373 15.48254713 -8 19 C-8.33 19.66 -8.66 20.32 -9 21 C-10.32 19.02 -11.64 17.04 -13 15 C-10.78113671 10.90874045 -8.13984728 7.92842268 -4.8125 4.6875 C-3.91144531 3.80449219 -3.01039062 2.92148438 -2.08203125 2.01171875 C-1.39496094 1.34785156 -0.70789063 0.68398437 0 0 Z " fill="#C48442" transform="translate(96,118)"/>
<path d="M0 0 C3.3326532 1.42095543 5.23606522 3.1165874 7.5625 5.875 C8.14128906 6.55304688 8.72007812 7.23109375 9.31640625 7.9296875 C9.87199219 8.61289063 10.42757812 9.29609375 11 10 C11.87978516 11.02480469 11.87978516 11.02480469 12.77734375 12.0703125 C13.38255859 13.02550781 13.38255859 13.02550781 14 14 C13.67 14.99 13.34 15.98 13 17 C12.01 16.67 11.02 16.34 10 16 C10 15.01 10 14.02 10 13 C7.69 12.01 5.38 11.02 3 10 C3 8.68 3 7.36 3 6 C2.03886134 4.63838689 1.04115841 3.30144802 0 2 C0 1.34 0 0.68 0 0 Z " fill="#CA883B" transform="translate(143,195)"/>
<path d="M0 0 C1.50433594 0.01353516 1.50433594 0.01353516 3.0390625 0.02734375 C3.80992187 0.03894531 4.58078125 0.05054688 5.375 0.0625 C5.375 0.3925 5.375 0.7225 5.375 1.0625 C2.075 1.0625 -1.225 1.0625 -4.625 1.0625 C-4.955 1.7225 -5.285 2.3825 -5.625 3.0625 C-5.955 3.3925 -6.285 3.7225 -6.625 4.0625 C-2.335 4.0625 1.955 4.0625 6.375 4.0625 C6.705 4.7225 7.035 5.3825 7.375 6.0625 C6.63894531 6.03929687 5.90289062 6.01609375 5.14453125 5.9921875 C3.68080078 5.96511719 3.68080078 5.96511719 2.1875 5.9375 C0.74310547 5.90269531 0.74310547 5.90269531 -0.73046875 5.8671875 C-3.75510533 6.07127904 -5.84646008 6.92037133 -8.625 8.0625 C-9.285 7.7325 -9.945 7.4025 -10.625 7.0625 C-13.24887135 8.45342892 -13.24887135 8.45342892 -15.625 10.0625 C-13.05298109 3.11804895 -7.04652544 -0.08193634 0 0 Z " fill="#0B0A0A" transform="translate(221.625,294.9375)"/>
<path d="M0 0 C0.33 1.32 0.66 2.64 1 4 C0.32904297 4.54527344 0.32904297 4.54527344 -0.35546875 5.1015625 C-3.38991773 7.62487829 -6.18377562 10.07552387 -8.625 13.1875 C-10.93914734 15.92793764 -12.75505899 17.50908116 -16 19 C-16.66 18.67 -17.32 18.34 -18 18 C-12.06 12.06 -6.12 6.12 0 0 Z " fill="#C4894A" transform="translate(115,99)"/>
<path d="M0 0 C1.44246094 0.13148438 1.44246094 0.13148438 2.9140625 0.265625 C5.375 0.75 5.375 0.75 7.375 2.75 C5.77835851 4.34664149 3.95650398 4.0633471 1.75 4.25 C-2.40320711 4.62593685 -6.50291055 5.12272552 -10.625 5.75 C-10.375 3.875 -10.375 3.875 -9.625 1.75 C-6.35149537 -0.4675354 -3.85916025 -0.39527787 0 0 Z " fill="#1A1A1A" transform="translate(83.625,295.25)"/>
<path d="M0 0 C-0.66 1.65 -1.32 3.3 -2 5 C-2.66 5 -3.32 5 -4 5 C-4.33 4.34 -4.66 3.68 -5 3 C-9.62 3 -14.24 3 -19 3 C-18.67 2.01 -18.34 1.02 -18 0 C-12.42454994 -2.78772503 -5.57569891 -2.49439162 0 0 Z " fill="#1B1A1A" transform="translate(233,297)"/>
<path d="M0 0 C2.93375101 0.67057166 4.61941083 1.4959765 6.4453125 3.9140625 C7.6840771 5.91732182 8.87054327 7.93333449 10 10 C3.57789614 10.48468708 3.57789614 10.48468708 1.0625 8.375 C-0.25066255 5.43969547 -0.21691118 3.18136394 0 0 Z " fill="#121212" transform="translate(266,321)"/>
<path d="M0 0 C0.99 0 1.98 0 3 0 C1.58226538 3.54433654 0.32387762 4.33806119 -3 6 C-3.309375 6.61875 -3.61875 7.2375 -3.9375 7.875 C-5.3750536 10.75010719 -7.48643979 12.0005771 -10 14 C-12.08139338 16.26749444 -14.05227692 18.6172185 -16 21 C-16.66 20.67 -17.32 20.34 -18 20 C-17.195625 19.236875 -16.39125 18.47375 -15.5625 17.6875 C-12.83200976 15.20569102 -12.83200976 15.20569102 -12 12 C-11.34 11.67 -10.68 11.34 -10 11 C-10 10.34 -10 9.68 -10 9 C-8.68 8.67 -7.36 8.34 -6 8 C-5.67 6.68 -5.34 5.36 -5 4 C-4.0409375 3.8453125 -4.0409375 3.8453125 -3.0625 3.6875 C-2.381875 3.460625 -1.70125 3.23375 -1 3 C-0.67 2.01 -0.34 1.02 0 0 Z " fill="#B37A40" transform="translate(154,125)"/>
<path d="M0 0 C0.66 0.33 1.32 0.66 2 1 C1.67 1.99 1.34 2.98 1 4 C-3.03266611 5.34422204 -6.78005323 5.45703395 -11 5 C-13.5625 3.5 -13.5625 3.5 -15 2 C-10.93807508 1.01529093 -7.16559228 1 -3 1 C-2.01 0.67 -1.02 0.34 0 0 Z " fill="#1A1A1A" transform="translate(91,326)"/>
<path d="M0 0 C0.66 0.66 1.32 1.32 2 2 C1.01 3.32 0.02 4.64 -1 6 C-2.48117801 5.71872579 -3.95993249 5.42466268 -5.4375 5.125 C-6.26121094 4.96257812 -7.08492188 4.80015625 -7.93359375 4.6328125 C-8.61550781 4.42398437 -9.29742187 4.21515625 -10 4 C-10.33 3.34 -10.66 2.68 -11 2 C-6.93150591 -0.71232939 -4.83523216 -0.30699887 0 0 Z " fill="#1E1B1C" transform="translate(265,312)"/>
<path d="M0 0 C0.33 0 0.66 0 1 0 C1 1.98 1 3.96 1 6 C-4.94 6 -10.88 6 -17 6 C-17.33 5.34 -17.66 4.68 -18 4 C-11.76817361 2.96136227 -6.25307239 3.16711126 0 4 C0 2.68 0 1.36 0 0 Z " fill="#0F0B0F" transform="translate(306,295)"/>
<path d="M0 0 C0.33 1.32 0.66 2.64 1 4 C1.99 4 2.98 4 4 4 C4.33 3.34 4.66 2.68 5 2 C4.67 5.96 4.34 9.92 4 14 C3.67 14 3.34 14 3 14 C3 11.03 3 8.06 3 5 C1.68 5.33 0.36 5.66 -1 6 C-0.67 9.63 -0.34 13.26 0 17 C-2.69734626 12.95398061 -2.43218852 9.74576236 -2 5 C-1 1.9375 -1 1.9375 0 0 Z " fill="#090909" transform="translate(68,304)"/>
<path d="M0 0 C0 3 0 3 -1.93359375 5.04296875 C-2.75988281 5.75066406 -3.58617188 6.45835937 -4.4375 7.1875 C-5.26121094 7.90292969 -6.08492188 8.61835938 -6.93359375 9.35546875 C-9 11 -9 11 -10 11 C-10.3125 8.75 -10.3125 8.75 -10 6 C-7.6875 3.6875 -7.6875 3.6875 -5 2 C-4.01 2 -3.02 2 -2 2 C-1.34 1.34 -0.68 0.68 0 0 Z " fill="#BC873A" transform="translate(127,154)"/>
<path d="M0 0 C2.78211944 0.37596209 4.5879284 0.67318459 6.8125 2.4375 C8 4 8 4 8 6 C6.02 6.33 4.04 6.66 2 7 C1.34 4.69 0.68 2.38 0 0 Z " fill="#131313" transform="translate(192,298)"/>
<path d="M0 0 C1.423125 0.2784375 1.423125 0.2784375 2.875 0.5625 C5.89868793 1.28686632 5.89868793 1.28686632 8 0 C7.67 1.98 7.34 3.96 7 6 C8.32 6 9.64 6 11 6 C11.33 7.32 11.66 8.64 12 10 C9 10 9 10 6.73828125 8.06640625 C5.93777344 7.24011719 5.13726562 6.41382813 4.3125 5.5625 C3.50425781 4.73878906 2.69601563 3.91507813 1.86328125 3.06640625 C0 1 0 1 0 0 Z " fill="#B07A42" transform="translate(122,241)"/>
<path d="M0 0 C1.65 0 3.3 0 5 0 C5.0825 0.78375 5.165 1.5675 5.25 2.375 C5.71610925 5.12640104 5.71610925 5.12640104 7.9375 6.1875 C8.618125 6.455625 9.29875 6.72375 10 7 C10.66 7.66 11.32 8.32 12 9 C11.67 9.99 11.34 10.98 11 12 C9.16364422 10.19047409 7.33083792 8.37759362 5.5 6.5625 C4.97535156 6.04623047 4.45070313 5.52996094 3.91015625 4.99804688 C2.58775448 3.68423213 1.29164432 2.34406495 0 1 C0 0.67 0 0.34 0 0 Z " fill="#B48248" transform="translate(101,220)"/>
<path d="M0 0 C5.61 0 11.22 0 17 0 C17 0.33 17 0.66 17 1 C13.7 1 10.4 1 7 1 C6.67 1.66 6.34 2.32 6 3 C6 2.34 6 1.68 6 1 C4.02 1.99 4.02 1.99 2 3 C2.33 3.66 2.66 4.32 3 5 C2.34 5 1.68 5 1 5 C1 6.98 1 8.96 1 11 C0.67 11 0.34 11 0 11 C0 7.37 0 3.74 0 0 Z " fill="#232122" transform="translate(247,295)"/>
<path d="M0 0 C0.639375 0.165 1.27875 0.33 1.9375 0.5 C4.04582216 1.24598544 4.04582216 1.24598544 6 0 C6.33 2.31 6.66 4.62 7 7 C4 7 4 7 2.61328125 5.6875 C1.40885417 4.125 0.20442708 2.5625 -1 1 C-0.67 0.67 -0.34 0.34 0 0 Z " fill="#C9863E" transform="translate(105,153)"/>
<path d="M0 0 C0.66 0 1.32 0 2 0 C1.43040847 3.62613199 0.07625466 5.25517741 -2.5625 7.75 C-3.52349609 8.67039062 -3.52349609 8.67039062 -4.50390625 9.609375 C-4.99761719 10.06828125 -5.49132812 10.5271875 -6 11 C-6.61328125 9.140625 -6.61328125 9.140625 -7 7 C-5.1875 4.75 -5.1875 4.75 -3 3 C-2.34 3 -1.68 3 -1 3 C-0.67 2.01 -0.34 1.02 0 0 Z " fill="#CB8F47" transform="translate(249,85)"/>
<path d="M0 0 C-1.65 1.65 -3.3 3.3 -5 5 C-5 4.01 -5 3.02 -5 2 C-10.61 2 -16.22 2 -22 2 C-22 1.67 -22 1.34 -22 1 C-19.27093526 0.83150207 -16.54176829 0.6651397 -13.8125 0.5 C-13.04357422 0.45230469 -12.27464844 0.40460937 -11.48242188 0.35546875 C-7.648496 0.12510411 -3.84309823 -0.0616128 0 0 Z " fill="#C3904F" transform="translate(277,61)"/>
<path d="M0 0 C0.33 0.66 0.66 1.32 1 2 C0.0625 4.625 0.0625 4.625 -1 7 C-1.66 7 -2.32 7 -3 7 C-3 7.66 -3 8.32 -3 9 C-4.32 9 -5.64 9 -7 9 C-5.44499019 5.18315774 -2.96404505 2.80804268 0 0 Z " fill="#8C6345" transform="translate(193,199)"/>
<path d="M0 0 C1.32 0.33 2.64 0.66 4 1 C3.67 3.64 3.34 6.28 3 9 C1.35 8.67 -0.3 8.34 -2 8 C-1.67 7.01 -1.34 6.02 -1 5 C-0.65179959 3.33637583 -0.31595508 1.67004829 0 0 Z " fill="#1C1C1C" transform="translate(168,307)"/>
<path d="M0 0 C0.33 2.31 0.66 4.62 1 7 C-0.98 6.34 -2.96 5.68 -5 5 C-5 3.68 -5 2.36 -5 1 C-3 0 -3 0 0 0 Z " fill="#1C1A1B" transform="translate(139,302)"/>
<path d="M0 0 C3.13152248 1.42150009 5.58143518 3.13564224 8.1875 5.375 C8.88230469 5.96023437 9.57710937 6.54546875 10.29296875 7.1484375 C12.12401235 9.13451225 12.61074192 10.36234076 13 13 C8.11950075 9.0580583 3.9419417 4.88049925 0 0 Z " fill="#B68653" transform="translate(88,207)"/>
<path d="M0 0 C0.33 0 0.66 0 1 0 C1.19441368 2.2910905 1.38033135 4.58290337 1.5625 6.875 C1.66691406 8.15117187 1.77132812 9.42734375 1.87890625 10.7421875 C2 14 2 14 1 16 C1.99 16 2.98 16 4 16 C4 16.66 4 17.32 4 18 C4.66 18.33 5.32 18.66 6 19 C1.125 18.125 1.125 18.125 0 17 C-0.07325168 14.13732433 -0.09238205 11.299281 -0.0625 8.4375 C-0.05798828 7.63119141 -0.05347656 6.82488281 -0.04882812 5.99414062 C-0.03700518 3.99606244 -0.01906914 1.99802217 0 0 Z " fill="#0A090A" transform="translate(179,189)"/>
<path d="M0 0 C1.65 0 3.3 0 5 0 C4.67 2.64 4.34 5.28 4 8 C2.02 6.35 0.04 4.7 -2 3 C-1.34 2.67 -0.68 2.34 0 2 C0 1.34 0 0.68 0 0 Z " fill="#131313" transform="translate(122,259)"/>
<path d="M0 0 C2 2 2 2 2 5 C2.66 5 3.32 5 4 5 C4 6.65 4 8.3 4 10 C2.68 9.67 1.36 9.34 0 9 C0 6 0 3 0 0 Z " fill="#191819" transform="translate(207,314)"/>
<path d="M0 0 C0.66 0.33 1.32 0.66 2 1 C2 1.99 2 2.98 2 4 C2.66 4 3.32 4 4 4 C4 4.66 4 5.32 4 6 C4.66 6 5.32 6 6 6 C6.33 7.32 6.66 8.64 7 10 C5.87105124 9.06725891 4.74699124 8.12859878 3.625 7.1875 C2.99851562 6.66542969 2.37203125 6.14335937 1.7265625 5.60546875 C0 4 0 4 -2 1 C-1.34 0.67 -0.68 0.34 0 0 Z " fill="#AD7D47" transform="translate(115,231)"/>
<path d="M0 0 C0.66 0.33 1.32 0.66 2 1 C-0.97 3.97 -3.94 6.94 -7 10 C-7.33 9.34 -7.66 8.68 -8 8 C-7.04578192 6.85073734 -6.08647955 5.70569459 -5.125 4.5625 C-4.59132812 3.92441406 -4.05765625 3.28632813 -3.5078125 2.62890625 C-2 1 -2 1 0 0 Z " fill="#24170A" transform="translate(223,167)"/>
<path d="M0 0 C0 3 0 3 -1.4375 4.6875 C-5.22782318 6.62888504 -8.82027057 6.24113824 -13 6 C-12.67 5.34 -12.34 4.68 -12 4 C-10.00532821 3.77110324 -8.01011162 3.54530256 -6.01171875 3.3515625 C-3.411132 2.89709103 -1.88856106 1.80987102 0 0 Z " fill="#0A0A0A" transform="translate(232,322)"/>
<path d="M0 0 C6.625 0.75 6.625 0.75 10 3 C9.67 3.66 9.34 4.32 9 5 C5.9375 5.625 5.9375 5.625 3 6 C3.66 5.01 4.32 4.02 5 3 C2.525 2.01 2.525 2.01 0 1 C0 0.67 0 0.34 0 0 Z " fill="#0B0B0B" transform="translate(150,311)"/>
<path d="M0 0 C0.33 0.66 0.66 1.32 1 2 C3.64 2 6.28 2 9 2 C9 2.66 9 3.32 9 4 C6.36 4.33 3.72 4.66 1 5 C0.34 4.01 -0.32 3.02 -1 2 C-0.67 1.34 -0.34 0.68 0 0 Z " fill="#CC8534" transform="translate(141,254)"/>
<path d="M0 0 C0.33 0.66 0.66 1.32 1 2 C1.99 2.33 2.98 2.66 4 3 C3.67 3.99 3.34 4.98 3 6 C2.01 6 1.02 6 0 6 C-0.66 4.35 -1.32 2.7 -2 1 C-1.34 0.67 -0.68 0.34 0 0 Z " fill="#181818" transform="translate(138,324)"/>
<path d="M0 0 C0 2.31 0 4.62 0 7 C-1.32 7 -2.64 7 -4 7 C-3.625 4.0625 -3.625 4.0625 -3 1 C-1 0 -1 0 0 0 Z " fill="#1D1B1C" transform="translate(274,303)"/>
<path d="M0 0 C0 3.16880694 -0.2058242 4.43689172 -2 7 C-4.625 7.75 -4.625 7.75 -7 8 C-6.02133662 6.85373678 -5.04205413 5.70800212 -4.0625 4.5625 C-3.51722656 3.92441406 -2.97195312 3.28632813 -2.41015625 2.62890625 C-1.63204305 1.73008851 -0.84063472 0.84063472 0 0 Z " fill="#886141" transform="translate(209,183)"/>
<path d="M0 0 C0.66 0 1.32 0 2 0 C1.64950425 3.24208567 1.43778819 4.61527704 -1.0625 6.8125 C-1.701875 7.204375 -2.34125 7.59625 -3 8 C-3.33 6.02 -3.66 4.04 -4 2 C-2.02 2.99 -2.02 2.99 0 4 C0 2.68 0 1.36 0 0 Z " fill="#CD9146" transform="translate(236,97)"/>
<path d="M0 0 C2.375 -0.1875 2.375 -0.1875 5 0 C5.66 0.99 6.32 1.98 7 3 C3.86650268 4.04449911 3.01031744 3.93423645 0 3 C0 2.01 0 1.02 0 0 Z " fill="#1C1C1C" transform="translate(149,312)"/>
<path d="M0 0 C3 0 3 0 6 1 C5.67 1.99 5.34 2.98 5 4 C2.9375 4.6875 2.9375 4.6875 1 5 C0.67 3.35 0.34 1.7 0 0 Z " fill="#CB8633" transform="translate(148,260)"/>
<path d="M0 0 C0.33 0.99 0.66 1.98 1 3 C-0.98 3.33 -2.96 3.66 -5 4 C-5 3.01 -5 2.02 -5 1 C-2 0 -2 0 0 0 Z " fill="#1A1A1A" transform="translate(228,327)"/>
<path d="M0 0 C1.98 1.65 3.96 3.3 6 5 C5.01 5.495 5.01 5.495 4 6 C1.96855359 5.06553465 -0.03533587 4.06775224 -2 3 C-1.34 2.01 -0.68 1.02 0 0 Z " fill="#BB7F43" transform="translate(163,213)"/>
<path d="M0 0 C2.97 0.495 2.97 0.495 6 1 C5.67 2.32 5.34 3.64 5 5 C3.35 3.35 1.7 1.7 0 0 Z " fill="#CA8842" transform="translate(111,161)"/>
<path d="M0 0 C0 0.99 0 1.98 0 3 C-2.5 4.6875 -2.5 4.6875 -5 6 C-4.75 4.125 -4.75 4.125 -4 2 C-1.9375 0.75 -1.9375 0.75 0 0 Z " fill="#C28844" transform="translate(134,82)"/>
</svg>
