<?xml version="1.0" encoding="UTF-8"?>
<svg version="1.1" xmlns="http://www.w3.org/2000/svg" width="382" height="374">
<path d="M0 0 C126.06 0 252.12 0 382 0 C382 123.42 382 246.84 382 374 C255.94 374 129.88 374 0 374 C0 250.58 0 127.16 0 0 Z " fill="#FCFCFC" transform="translate(0,0)"/>
<path d="M0 0 C-0.56731102 0.65815169 -0.56731102 0.65815169 -1.14608288 1.32959938 C-4.38575 5.09708619 -7.57641498 8.89872892 -10.73364258 12.73583984 C-16.88569991 20.13753742 -23.26719837 27.31924873 -29.8125 34.375 C-30.70167366 35.33399452 -30.70167366 35.33399452 -31.60881042 36.31236267 C-55.78533102 62.15360492 -55.78533102 62.15360492 -70.71328735 62.85621643 C-77.80688452 62.62521193 -84.73283748 61.75196582 -91.75231934 60.75015259 C-104.71475194 59.11785377 -114.68679934 59.39231597 -125.15478516 67.50244141 C-133.94184692 74.66668228 -141.846796 82.77604841 -149.5625 91.0625 C-150.21086319 91.7588002 -150.85922638 92.4551004 -151.52723694 93.17250061 C-159.60818505 101.89867362 -167.41368706 110.84151034 -175 120 C-170.37706594 125.54724551 -165.45876626 130.68733981 -160.34765625 135.78515625 C-159.52929794 136.60447128 -158.71093964 137.42378632 -157.86778259 138.26792908 C-156.14526136 139.99112764 -154.42148936 141.71307674 -152.6965332 143.43383789 C-150.07063161 146.05438498 -147.45010749 148.68022394 -144.83007812 151.30664062 C-143.14875802 152.98729987 -141.4671277 154.66764886 -139.78515625 156.34765625 C-139.00890396 157.12593277 -138.23265167 157.90420929 -137.43287659 158.70606995 C-133.58121187 162.54134761 -129.68609519 166.24282062 -125.50926208 169.72312927 C-123.17863657 171.69489252 -121.06405419 173.74830452 -119 176 C-119 176.66 -119 177.32 -119 178 C-93.26 178 -67.52 178 -41 178 C-41 172.72 -41 167.44 -41 162 C-43.11003418 162.01047363 -45.22006836 162.02094727 -47.39404297 162.03173828 C-54.35500013 162.06483439 -61.31596071 162.08695219 -68.27697563 162.10362434 C-72.4986575 162.11407464 -76.72025895 162.12825645 -80.94189453 162.15087891 C-85.01377277 162.17256303 -89.08557353 162.18455923 -93.15750504 162.18975449 C-94.71329087 162.19345824 -96.26907232 162.20069046 -97.82482529 162.21146011 C-99.99903374 162.22591638 -102.17291942 162.22798044 -104.34716797 162.22705078 C-105.58626923 162.231492 -106.82537048 162.23593323 -108.10202026 162.24050903 C-111 162 -111 162 -113 160 C-113 141.85 -113 123.7 -113 105 C-70.1 105 -27.2 105 17 105 C17 148.89 17 192.78 17 238 C-23.80138129 241.03760284 -23.80138129 241.03760284 -38.74682617 241.65722656 C-40.12721874 241.71464547 -40.12721874 241.71464547 -41.53549802 241.77322435 C-48.35596161 242.05009212 -55.17730521 242.28570083 -62 242.5 C-62.96240113 242.53100485 -63.92480226 242.5620097 -64.91636705 242.59395409 C-151.64506336 245.30762015 -151.64506336 245.30762015 -182.33840942 217.35791016 C-187.28353732 212.59149846 -191.79770564 207.52785061 -196.1875 202.25 C-196.89737061 201.39717438 -197.60724121 200.54434875 -198.33862305 199.66567993 C-205.80578727 190.56394416 -212.71163746 181.15586471 -218.78941345 171.0669632 C-220.40405585 168.39609132 -221.87248625 166.11846918 -224.1690979 163.98475647 C-233.59604824 153.76564062 -231.6653131 124.29717143 -231.36109447 111.21048832 C-229.79933092 74.9788878 -211.17531931 48.58278296 -185.61181641 24.05908203 C-137.21160208 -19.75195202 -59.92828229 -6.37298877 0 0 Z " fill="#DA923A" transform="translate(292,46)"/>
<path d="M0 0 C-1.37555098 1.65066118 -2.75913609 3.29512484 -4.17684364 4.90972328 C-5.41328215 6.32731899 -6.61496084 7.77584974 -7.78340721 9.24999046 C-10.42097703 12.31712932 -12.4568995 14.67640838 -16.51161575 15.52669144 C-19.48591248 15.52916895 -22.32072711 15.25922938 -25.27197266 14.88916016 C-27.5730915 14.68223982 -29.87435362 14.47690833 -32.17573547 14.27293396 C-33.39260859 14.15061338 -34.6094817 14.02829281 -35.86322975 13.90226555 C-42.43565398 13.27421252 -49.02228667 12.87261648 -55.61254883 12.48706055 C-56.30082854 12.44657046 -56.98910825 12.40608037 -57.69824493 12.36436331 C-117.9826996 8.84798437 -117.9826996 8.84798437 -170.44062233 35.36499596 C-193.72146899 56.51443836 -214.00402969 83.62031092 -216.02301502 115.97214699 C-216.85832343 138.1596539 -211.32093685 156.52616425 -196.39944458 173.10333252 C-187.61978956 182.52358129 -177.66540631 190.5143027 -167.36450195 198.20553589 C-165.29260389 199.77793752 -163.26987862 201.37025813 -161.28710938 203.05297852 C-160.62622818 203.60566406 -159.96534698 204.15834961 -159.28443909 204.7277832 C-157.33183757 206.66993784 -155.89959698 208.48833396 -154.31309509 210.71484375 C-148.98309301 217.69626575 -144.11127398 222.09939642 -135.17825317 223.3522644 C-127.38810768 223.96422187 -119.61220617 223.88603004 -111.80515981 223.72283816 C-107.86543193 223.65655217 -103.92608539 223.67639579 -99.98594666 223.6865387 C-92.54792599 223.69288708 -85.11268809 223.62340412 -77.67538589 223.5256682 C-67.60954016 223.39786298 -57.54360632 223.38922065 -47.47707844 223.37338734 C-31.64958742 223.34539446 -15.8279819 223.15996042 0 223 C0 189.67 0 156.34 0 122 C-42.54721018 116.71971165 -42.54721018 116.71971165 -81.0234375 131.78515625 C-88.91037861 139.10800464 -95.96605484 147.43965235 -102.22384644 156.19325256 C-103.06908371 157.35950417 -103.06908371 157.35950417 -103.93139648 158.54931641 C-104.40802231 159.24135162 -104.88464813 159.93338684 -105.37571716 160.64639282 C-107 162 -107 162 -109.62928772 161.77816772 C-112 161 -112 161 -113 160 C-113 141.85 -113 123.7 -113 105 C-70.1 105 -27.2 105 17 105 C17 148.89 17 192.78 17 238 C-23.80138129 241.03760284 -23.80138129 241.03760284 -38.74682617 241.65722656 C-40.12721874 241.71464547 -40.12721874 241.71464547 -41.53549802 241.77322435 C-48.35596161 242.05009212 -55.17730521 242.28570083 -62 242.5 C-62.96240113 242.53100485 -63.92480226 242.5620097 -64.91636705 242.59395409 C-151.64506336 245.30762015 -151.64506336 245.30762015 -182.33840942 217.35791016 C-187.28353732 212.59149846 -191.79770564 207.52785061 -196.1875 202.25 C-196.89737061 201.39717438 -197.60724121 200.54434875 -198.33862305 199.66567993 C-205.80578727 190.56394416 -212.71163746 181.15586471 -218.78941345 171.0669632 C-220.40405585 168.39609132 -221.87248625 166.11846918 -224.1690979 163.98475647 C-233.59604824 153.76564062 -231.6653131 124.29717143 -231.36109447 111.21048832 C-229.79933092 74.9788878 -211.17531931 48.58278296 -185.61181641 24.05908203 C-137.21160208 -19.75195202 -59.92828229 -6.37298877 0 0 Z " fill="#1D1C1C" transform="translate(292,46)"/>
<path d="M0 0 C0.71341207 0.02728762 1.42682413 0.05457524 2.16185474 0.08268976 C20.80298731 0.81063315 39.37934397 2.14253496 57.9375 4.0625 C57.54331784 4.5172426 57.14913568 4.97198521 56.74300861 5.44050789 C53.92774644 8.70362152 51.17380587 11.97686988 48.58081055 15.42138672 C23.77847596 47.614238 23.77847596 47.614238 9.73242188 50.78631592 C1.66397149 51.41734018 -6.36702428 50.32268741 -14.375 49.375 C-28.65728853 47.70363989 -40.64527106 47.60701208 -52.28320312 56.63085938 C-61.04565785 63.77713698 -68.93087909 71.85978108 -76.625 80.125 C-77.2723624 80.82029942 -77.91972481 81.51559883 -78.58670425 82.23196793 C-86.66845531 90.95936839 -94.47526111 99.90289249 -102.0625 109.0625 C-105.01515112 107.73255617 -107.08600216 106.28470684 -109.36230469 103.98974609 C-109.98264587 103.36925385 -110.60298706 102.7487616 -111.24212646 102.10946655 C-111.89956848 101.44170197 -112.5570105 100.77393738 -113.234375 100.0859375 C-114.2580014 99.05806625 -114.2580014 99.05806625 -115.30230713 98.00942993 C-117.47711598 95.82344155 -119.64486072 93.63059571 -121.8125 91.4375 C-123.2872999 89.95266745 -124.76255506 88.46828694 -126.23828125 86.984375 C-129.85165448 83.3489709 -133.45870853 79.70740176 -137.0625 76.0625 C-135.90065186 74.79104126 -135.90065186 74.79104126 -134.71533203 73.49389648 C-131.6619331 69.94442419 -129.02223409 66.1600766 -126.38232422 62.30102539 C-120.06220406 53.16257308 -113.19830135 44.53306065 -105.9375 36.125 C-104.95119535 34.98156065 -104.95119535 34.98156065 -103.94496536 33.81502151 C-74.52544446 0.31116125 -41.7416187 -1.63288117 0 0 Z " fill="#D38C3B" transform="translate(219.0625,56.9375)"/>
<path d="M0 0 C5.00364049 4.19183804 9.69757019 8.56264865 14.29296875 13.1953125 C14.98500397 13.88880798 15.67703918 14.58230347 16.39004517 15.29681396 C17.88123786 16.79179031 19.37127498 18.28792004 20.86026001 19.78509521 C23.22109212 22.15877492 25.58510738 24.52924321 27.94995117 26.89892578 C33.82051676 32.7828103 39.68561577 38.67213428 45.55090332 44.5612793 C50.51541678 49.545566 55.48200104 54.52777186 60.45132446 59.50726318 C62.77259684 61.83498596 65.09082018 64.16571589 67.40893555 66.49658203 C68.8414848 67.93276614 70.27417595 69.36880873 71.70703125 70.8046875 C72.66266464 71.76807037 72.66266464 71.76807037 73.63760376 72.75091553 C77.59694712 76.71071999 81.70655929 80.40703852 86 84 C89.35188805 86.91085015 90.57375734 88.55530121 91 93 C90.13891602 95.44091797 90.13891602 95.44091797 88.75390625 97.9921875 C88.24964111 98.93803711 87.74537598 99.88388672 87.22583008 100.85839844 C86.67693115 101.85387695 86.12803223 102.84935547 85.5625 103.875 C85.01424561 104.89625977 84.46599121 105.91751953 83.90112305 106.96972656 C82.27942904 109.98650023 80.64064925 112.99350514 79 116 C77.77599221 118.27252101 76.55699174 120.54759421 75.34155273 122.82470703 C74.37593611 124.63131502 73.40117491 126.43302687 72.42578125 128.234375 C70.9224844 130.97648332 70.9224844 130.97648332 70 134 C139.3 134.495 139.3 134.495 210 135 C210 135.33 210 135.66 210 136 C191.76250484 136.37510269 173.52602113 136.65654949 155.28549194 136.82899475 C146.81433562 136.91122328 138.34558655 137.02314545 129.87597656 137.20703125 C122.48666548 137.36738482 115.0990983 137.46993089 107.70809555 137.50541592 C103.79969868 137.52613836 99.89628645 137.5741794 95.98950195 137.69168091 C69.09840308 138.46919425 69.09840308 138.46919425 60.46054077 130.50804138 C57.97681105 127.81489871 55.76735102 124.99996625 53.61513519 122.03785515 C49.60551013 116.9788142 44.23779439 113.04871953 39.05273438 109.26123047 C32.98723688 104.71096213 27.1675606 99.90862131 21.5 94.875 C20.7327787 94.19429192 20.7327787 94.19429192 19.95005798 93.49983215 C6.19003786 81.1152302 -1.87000355 69.60198383 -2.890625 50.7421875 C-3.60790779 33.83339798 -2.13623958 16.76360174 0 0 Z " fill="#C98539" transform="translate(82,133)"/>
<path d="M0 0 C-0.36990555 0.41363297 -0.7398111 0.82726593 -1.1209259 1.25343323 C-3.82407903 4.33288891 -6.35858968 7.42235644 -8.6472168 10.82397461 C-17.05131389 23.24616156 -27.62185722 37.30319414 -42.89001465 40.92199707 C-63.44480798 44.26095521 -85.39881714 41.97057383 -106 40 C-105.63009445 39.58636703 -105.2601889 39.17273407 -104.8790741 38.74656677 C-102.17592097 35.66711109 -99.64141032 32.57764356 -97.3527832 29.17602539 C-72.51302169 -7.53989519 -39.8669533 -3.81341088 0 0 Z " fill="#A76D41" transform="translate(291,168)"/>
<path d="M0 0 C1.93566979 7.7795206 3.27644352 16.43312966 -1.00195312 23.70237732 C-7.63535411 33.06306012 -16.64895044 40.79674013 -25.03234863 48.54296875 C-28.32989284 51.61323015 -31.56412698 54.7487529 -34.8046875 57.87890625 C-41.14384966 63.98387939 -47.54824442 70.01414692 -54 76 C-57.41059403 74.39464713 -59.61792484 72.59481099 -62.25 69.875 C-62.95640625 69.15054688 -63.6628125 68.42609375 -64.390625 67.6796875 C-64.92171875 67.12539062 -65.4528125 66.57109375 -66 66 C-62.15095173 61.40054977 -58.16695596 57.02129157 -53.91870117 52.78930664 C-53.34397064 52.21282379 -52.76924011 51.63634094 -52.17709351 51.04238892 C-50.301537 49.16247703 -48.42240185 47.2861919 -46.54296875 45.41015625 C-45.23099913 44.09751233 -43.91917793 42.78472006 -42.60749817 41.4717865 C-39.87154491 38.73436532 -37.13380672 35.99874549 -34.39477539 33.2644043 C-30.87611382 29.75147345 -27.36200613 26.23402662 -23.84919262 22.71524906 C-21.14794372 20.01039888 -18.44433289 17.30791972 -15.73998451 14.60616875 C-14.44220801 13.30906097 -13.14517845 12.01120543 -11.84889793 10.71260262 C-10.04644104 8.90762267 -8.24083883 7.10585108 -6.43432617 5.30493164 C-5.89565414 4.76423538 -5.35698212 4.22353912 -4.80198669 3.66645813 C-1.11426933 0 -1.11426933 0 0 0 Z " fill="#1B1A1B" transform="translate(309,51)"/>
<path d="M0 0 C4.73003732 4.0543177 9.22300104 8.08469551 13.58984375 12.4921875 C14.17923233 13.08299103 14.76862091 13.67379456 15.37586975 14.28250122 C17.23213727 16.14430404 19.08487085 18.00957745 20.9375 19.875 C22.20614672 21.14867011 23.4750249 22.42210971 24.74414062 23.6953125 C27.83210554 26.79422043 30.91690929 29.89624301 34 33 C30.04047376 37.74042214 25.91752023 42.23120477 21.54296875 46.58984375 C20.66032097 47.47392662 20.66032097 47.47392662 19.75984192 48.37586975 C18.53000519 49.60638107 17.29892856 50.83565434 16.06665039 52.0637207 C14.1715068 53.95344748 12.28183723 55.84853271 10.39257812 57.74414062 C9.19302935 58.94302962 7.99317097 60.14160892 6.79296875 61.33984375 C6.22636032 61.90847641 5.65975189 62.47710907 5.07597351 63.06297302 C1.11498718 67 1.11498718 67 0 67 C0 44.89 0 22.78 0 0 Z " fill="#A86F41" transform="translate(82,133)"/>
<path d="M0 0 C3.361875 -0.0825 6.72375 -0.165 10.1875 -0.25 C11.23832764 -0.28641602 12.28915527 -0.32283203 13.37182617 -0.36035156 C17.70724433 -0.41189935 20.30754134 -0.40661312 24.11328125 1.828125 C26.55767836 4.64196515 26.95771879 6.62651597 27.375 10.3125 C26.87765929 15.20301701 25.42915508 16.57084492 22 20 C21.34 20.33 20.68 20.66 20 21 C21.35571097 25.06713292 23.39673943 28.08650139 25.9765625 31.44921875 C27 33 27 33 27 35 C24.2734375 35.3671875 24.2734375 35.3671875 21 35 C18.6640625 32.4453125 18.6640625 32.4453125 16.625 29.125 C15.93664062 28.03445313 15.24828125 26.94390625 14.5390625 25.8203125 C13 23 13 23 13 21 C10.36 21 7.72 21 5 21 C5 25.62 5 30.24 5 35 C3.35 35 1.7 35 0 35 C0 23.45 0 11.9 0 0 Z " fill="#1D1C1C" transform="translate(248,296)"/>
<path d="M0 0 C3.74882644 2.22736489 5.8281283 3.95400722 7.57421875 8.01953125 C5.44921875 8.76953125 5.44921875 8.76953125 2.57421875 9.01953125 C1.21296875 8.06046875 1.21296875 8.06046875 -0.17578125 7.08203125 C-4.39707591 4.40313272 -7.54962847 4.27281413 -12.42578125 5.01953125 C-16.31864792 6.67607026 -17.86467523 8.15070329 -19.42578125 12.01953125 C-20.05477194 16.40260321 -20.44484601 20.99707964 -18.41015625 25.03515625 C-16.29228882 27.66335318 -14.63662163 28.94925112 -11.42578125 30.01953125 C-6.45841733 30.38748413 -3.31931013 30.26413865 0.57421875 27.01953125 C2.40051669 23.95272326 2.40051669 23.95272326 3.57421875 21.01953125 C-0.05578125 21.01953125 -3.68578125 21.01953125 -7.42578125 21.01953125 C-7.42578125 19.36953125 -7.42578125 17.71953125 -7.42578125 16.01953125 C-1.81578125 16.01953125 3.79421875 16.01953125 9.57421875 16.01953125 C9.32400722 22.10801172 9.10210613 26.80092708 5.15234375 31.61328125 C0.86228373 35.43610701 -4.77331049 36.62924991 -10.4140625 36.36328125 C-15.92017513 35.42243094 -20.0224935 32.98351488 -23.36328125 28.51953125 C-26.45826982 23.90327711 -26.79241675 19.51906368 -26.42578125 14.01953125 C-25.03148345 7.80427157 -22.62251918 4.62543103 -17.42578125 1.01953125 C-12.16299437 -2.10283497 -5.65607382 -2.28611035 0 0 Z " fill="#1F1F1F" transform="translate(92.42578125,295.98046875)"/>
<path d="M0 0 C5.38697265 3.15927719 8.64594858 7.10972074 10.640625 13.09375 C11.11637147 20.22994707 10.06199317 25.13430001 5.390625 30.84375 C0.62371398 34.74394993 -4.06006177 36.71224008 -10.30859375 36.4453125 C-15.32224751 35.585829 -19.17360283 33.27952217 -22.734375 29.71875 C-26.16069924 24.18391853 -27.42648283 18.52906353 -26.359375 12.09375 C-24.17802013 6.98288962 -21.01915194 3.15939272 -16.359375 0.09375 C-11.10193829 -1.6587289 -5.23639507 -2.01133056 0 0 Z M-18.359375 8.09375 C-21.62303369 13.56827425 -21.71616468 17.08510999 -20.359375 23.09375 C-18.89571602 26.56031075 -17.75987749 27.82978245 -14.609375 29.90625 C-9.9209865 31.61931503 -6.29287446 31.94808697 -1.671875 29.90625 C3.10567897 26.16625365 3.10567897 26.16625365 5.02734375 20.53515625 C5.26090847 14.5993909 4.82879602 10.63093527 0.640625 6.09375 C-5.78211836 2.21054324 -12.89415177 3.01889985 -18.359375 8.09375 Z " fill="#201F20" transform="translate(230.359375,295.90625)"/>
<path d="M0 0 C2.2661525 2.05370071 3.60739383 4.10058273 5 6.8125 C3.35 7.4725 1.7 8.1325 0 8.8125 C-0.474375 8.1525 -0.94875 7.4925 -1.4375 6.8125 C-5.10861497 3.94723954 -8.4865048 4.28098802 -13 4.8125 C-13.99 5.3075 -13.99 5.3075 -15 5.8125 C-15.65772428 8.84184491 -15.65772428 8.84184491 -16 11.8125 C-14.83082031 12.03164063 -13.66164062 12.25078125 -12.45703125 12.4765625 C-10.90859785 12.79563362 -9.36043418 13.11601571 -7.8125 13.4375 C-7.04357422 13.57800781 -6.27464844 13.71851563 -5.48242188 13.86328125 C0.30941043 15.10616372 2.74234206 16.83321144 6 21.8125 C6.625 24.8125 6.625 24.8125 6 27.8125 C3.41943072 31.53998896 1.22048051 34.13512954 -3 35.8125 C-8.90289963 36.5625384 -13.99759473 36.26654174 -19 32.8125 C-23 28.49671053 -23 28.49671053 -23 25.8125 C-20.8125 25 -20.8125 25 -18 24.8125 C-16.88625 26.0190625 -16.88625 26.0190625 -15.75 27.25 C-12.80422382 29.9949278 -12.24319963 30.2379699 -8.4375 30.375 C-5.23980208 30.18815622 -4.11440369 29.88876913 -1.375 28.0625 C0.27294834 25.93391285 0.27294834 25.93391285 -0.4140625 23.671875 C-0.60742188 23.05828125 -0.80078125 22.4446875 -1 21.8125 C-2.02480469 21.57015625 -3.04960937 21.3278125 -4.10546875 21.078125 C-5.466314 20.74025997 -6.82698197 20.40168031 -8.1875 20.0625 C-9.19780273 19.82660156 -9.19780273 19.82660156 -10.22851562 19.5859375 C-14.67602784 18.45778806 -17.73995418 17.06029001 -21 13.8125 C-22.37513491 9.44442439 -22.40393927 7.60541782 -20.3125 3.5 C-15.1418449 -2.50913971 -7.17518283 -2.84017654 0 0 Z " fill="#201F20" transform="translate(156,296.1875)"/>
<path d="M0 0 C3.40854792 1.80876433 5.8489229 3.93843735 7.84765625 7.23046875 C5.72265625 8.48046875 5.72265625 8.48046875 2.84765625 9.23046875 C1.94015625 8.61171875 1.03265625 7.99296875 0.09765625 7.35546875 C-3.60721671 4.93305182 -5.64134461 4.57964784 -9.96484375 4.76953125 C-13.76793319 5.57089652 -15.52561513 7.40673548 -18.15234375 10.23046875 C-19.50843664 14.29874741 -19.68224235 17.97676221 -19.15234375 22.23046875 C-17.54519601 25.38736609 -16.17796141 27.42462631 -13.40234375 29.60546875 C-9.21097807 30.76973699 -4.95897869 30.86523238 -0.83984375 29.41796875 C0.93347449 28.17007814 2.39022944 26.83363824 3.84765625 25.23046875 C5.16765625 25.89046875 6.48765625 26.55046875 7.84765625 27.23046875 C6.3413016 31.44826178 3.60753203 33.00523615 -0.15234375 35.23046875 C-5.32930139 36.9561213 -10.27522393 36.91633945 -15.40234375 35.04296875 C-19.72965362 32.19087815 -23.22625959 29.10533662 -25.15234375 24.23046875 C-25.7825704 18.62438284 -26.23267645 12.40255154 -23.65234375 7.23046875 C-17.44186724 -0.22210306 -9.5572422 -3.41701763 0 0 Z " fill="#1F1F1F" transform="translate(192.15234375,295.76953125)"/>
<path d="M0 0 C8.25 0 16.5 0 25 0 C25 1.32 25 2.64 25 4 C18.4 4 11.8 4 5 4 C5 7.63 5 11.26 5 15 C10.94 15 16.88 15 23 15 C23 16.32 23 17.64 23 19 C17.06 19 11.12 19 5 19 C5 22.96 5 26.92 5 31 C11.93 31 18.86 31 26 31 C26 32.32 26 33.64 26 35 C17.42 35 8.84 35 0 35 C0 23.45 0 11.9 0 0 Z " fill="#1D1C1C" transform="translate(282,296)"/>
<path d="M0 0 C54.78 0 109.56 0 166 0 C166 0.33 166 0.66 166 1 C155.77 1 145.54 1 135 1 C134.67 2.32 134.34 3.64 134 5 C133.01 5 132.02 5 131 5 C130.67 4.34 130.34 3.68 130 3 C129.67 3.66 129.34 4.32 129 5 C128.01 5 127.02 5 126 5 C126 5.66 126 6.32 126 7 C124.68 7.33 123.36 7.66 122 8 C119 4.375 119 4.375 119 1 C89.63 1 60.26 1 30 1 C29.67 2.32 29.34 3.64 29 5 C28.01 4.67 27.02 4.34 26 4 C26.33 3.01 26.66 2.02 27 1 C26.01 1 25.02 1 24 1 C23.67 1.66 23.34 2.32 23 3 C22.01 3 21.02 3 20 3 C20 2.34 20 1.68 20 1 C19.16210938 1.17402344 18.32421875 1.34804688 17.4609375 1.52734375 C13.7112134 2.03943925 10.39185003 1.88232689 6.625 1.5625 C5.37976563 1.46066406 4.13453125 1.35882813 2.8515625 1.25390625 C1.44003906 1.12822266 1.44003906 1.12822266 0 1 C0 0.67 0 0.34 0 0 Z " fill="#F1F1F1" transform="translate(143,284)"/>
<path d="M0 0 C12.3651187 -0.49460475 12.3651187 -0.49460475 15.38671875 1.859375 C17 4 17 4 17.5625 6.5 C17 9 17 9 15.25 11.3125 C10.18355243 13.94315547 5.66060864 13.24881796 0 13 C0 8.71 0 4.42 0 0 Z " fill="#EFEFEF" transform="translate(253,300)"/>
<path d="M0 0 C5.61 0 11.22 0 17 0 C16.71387053 6.96248386 16.21704162 12.04308787 11 17 C8.1875 18.4375 8.1875 18.4375 6 19 C5.64319448 15.1643407 5.64205992 13.49649753 7.9375 10.3125 C8.618125 9.549375 9.29875 8.78625 10 8 C10.33 7.01 10.66 6.02 11 5 C7.37 5 3.74 5 0 5 C0 3.35 0 1.7 0 0 Z " fill="#2A2A2B" transform="translate(85,312)"/>
<path d="M0 0 C0.66 0.33 1.32 0.66 2 1 C0.07141188 3.00931971 -1.866898 5.00727269 -3.8125 7 C-4.63331055 7.85851562 -4.63331055 7.85851562 -5.47070312 8.734375 C-6.92391154 10.21400538 -8.45816374 11.61296658 -10 13 C-10.99 13 -11.98 13 -13 13 C-13.33 12.34 -13.66 11.68 -14 11 C-14.33 12.32 -14.66 13.64 -15 15 C-15.66 15 -16.32 15 -17 15 C-17.33 15.66 -17.66 16.32 -18 17 C-20.5625 17.625 -20.5625 17.625 -23 18 C-22.34 18 -21.68 18 -21 18 C-21.33 19.32 -21.66 20.64 -22 22 C-22.5775 21.814375 -23.155 21.62875 -23.75 21.4375 C-26.20692525 20.95976454 -27.64397534 21.24270636 -30 22 C-30 21.01 -30 20.02 -30 19 C-29.67 19 -29.34 19 -29 19 C-28.67 18.34 -28.34 17.68 -28 17 C-25.2019941 13.70235018 -23.31566167 12.47951796 -19 12 C-19.33 10.68 -19.66 9.36 -20 8 C-19.01 8.33 -18.02 8.66 -17 9 C-16.67 8.01 -16.34 7.02 -16 6 C-15.34 6 -14.68 6 -14 6 C-13.34 7.32 -12.68 8.64 -12 10 C-12 8.68 -12 7.36 -12 6 C-11.01 5.67 -10.02 5.34 -9 5 C-9.33 4.01 -9.66 3.02 -10 2 C-9.34 2 -8.68 2 -8 2 C-7.67 2.66 -7.34 3.32 -7 4 C-5.88625 3.319375 -4.7725 2.63875 -3.625 1.9375 C-1.7265625 0.77734375 -1.7265625 0.77734375 0 0 Z " fill="#F4F4F4" transform="translate(299,58)"/>
<path d="M0 0 C-0.75 1.9375 -0.75 1.9375 -2 4 C-4.125 4.75 -4.125 4.75 -6 5 C-5.34 5 -4.68 5 -4 5 C-4.33 6.32 -4.66 7.64 -5 9 C-5.5775 8.814375 -6.155 8.62875 -6.75 8.4375 C-9.20692525 7.95976454 -10.64397534 8.24270636 -13 9 C-13.33 7.35 -13.66 5.7 -14 4 C-13.01 4 -12.02 4 -11 4 C-10.67 3.34 -10.34 2.68 -10 2 C-9.34 2 -8.68 2 -8 2 C-7.67 1.34 -7.34 0.68 -7 0 C-4.3333581 -1.33332095 -2.83319697 -0.67102033 0 0 Z " fill="#F5F5F5" transform="translate(282,350)"/>
<path d="M0 0 C1 3 1 3 2 6 C1.34 6 0.68 6 0 6 C-0.33 6.66 -0.66 7.32 -1 8 C-4.0625 8.625 -4.0625 8.625 -7 9 C-7 9.66 -7 10.32 -7 11 C-10 13 -10 13 -13 13 C-13.33 11.35 -13.66 9.7 -14 8 C-13.01 7.67 -12.02 7.34 -11 7 C-11.33 6.01 -11.66 5.02 -12 4 C-11.34 4 -10.68 4 -10 4 C-9.67 4.66 -9.34 5.32 -9 6 C-7.88625 5.38125 -6.7725 4.7625 -5.625 4.125 C-4.99851562 3.77695312 -4.37203125 3.42890625 -3.7265625 3.0703125 C-1.8387386 1.99102726 -1.8387386 1.99102726 0 0 Z " fill="#F5F5F5" transform="translate(301,335)"/>
<path d="M0 0 C0.56203125 0.22558594 1.1240625 0.45117188 1.703125 0.68359375 C1.703125 2.00359375 1.703125 3.32359375 1.703125 4.68359375 C0.053125 5.01359375 -1.596875 5.34359375 -3.296875 5.68359375 C-2.636875 5.68359375 -1.976875 5.68359375 -1.296875 5.68359375 C-1.626875 7.00359375 -1.956875 8.32359375 -2.296875 9.68359375 C-2.874375 9.49796875 -3.451875 9.31234375 -4.046875 9.12109375 C-6.50380025 8.64335829 -7.94085034 8.92630011 -10.296875 9.68359375 C-10.626875 8.36359375 -10.956875 7.04359375 -11.296875 5.68359375 C-9.89135201 4.64747104 -8.47195806 3.6301445 -7.046875 2.62109375 C-6.25796875 2.05261719 -5.4690625 1.48414063 -4.65625 0.8984375 C-2.296875 -0.31640625 -2.296875 -0.31640625 0 0 Z " fill="#F5F5F5" transform="translate(69.296875,349.31640625)"/>
<path d="M0 0 C0.66 0.33 1.32 0.66 2 1 C2 1.99 2 2.98 2 4 C2.66 4 3.32 4 4 4 C3.67 5.32 3.34 6.64 3 8 C2.4225 7.814375 1.845 7.62875 1.25 7.4375 C-1.20692525 6.95976454 -2.64397534 7.24270636 -5 8 C-5.33 6.35 -5.66 4.7 -6 3 C-5.195625 2.690625 -4.39125 2.38125 -3.5625 2.0625 C-1.10919595 1.23664655 -1.10919595 1.23664655 0 0 Z " fill="#F5F5F5" transform="translate(169,351)"/>
<path d="M0 0 C0.33 0.99 0.66 1.98 1 3 C0.34 3 -0.32 3 -1 3 C-1.33 3.66 -1.66 4.32 -2 5 C-4.5625 5.625 -4.5625 5.625 -7 6 C-6.34 6 -5.68 6 -5 6 C-5.33 7.32 -5.66 8.64 -6 10 C-6.99 10 -7.98 10 -9 10 C-8.67 8.02 -8.34 6.04 -8 4 C-8.66 3.67 -9.32 3.34 -10 3 C-6.48812804 0.59185923 -4.27343092 -0.36629408 0 0 Z " fill="#F5F5F5" transform="translate(73,279)"/>
<path d="M0 0 C2.1385485 2.1385485 2.42655063 3.13275314 3 6 C2.34 6 1.68 6 1 6 C0.67 6.66 0.34 7.32 0 8 C-2.5625 8.625 -2.5625 8.625 -5 9 C-5.33 7.35 -5.66 5.7 -6 4 C-4.68 4 -3.36 4 -2 4 C-1.34 2.68 -0.68 1.36 0 0 Z " fill="#F5F5F5" transform="translate(169,141)"/>
<path d="M0 0 C0.556875 0.226875 1.11375 0.45375 1.6875 0.6875 C1.6875 2.0075 1.6875 3.3275 1.6875 4.6875 C0.0375 5.0175 -1.6125 5.3475 -3.3125 5.6875 C-2.6525 5.6875 -1.9925 5.6875 -1.3125 5.6875 C-1.6425 7.0075 -1.9725 8.3275 -2.3125 9.6875 C-3.3025 9.6875 -4.2925 9.6875 -5.3125 9.6875 C-4.9825 7.7075 -4.6525 5.7275 -4.3125 3.6875 C-5.3025 3.3575 -6.2925 3.0275 -7.3125 2.6875 C-2.88173077 -0.38942308 -2.88173077 -0.38942308 0 0 Z " fill="#F5F5F5" transform="translate(69.3125,70.3125)"/>
<path d="M0 0 C0.33 0 0.66 0 1 0 C1 2.31 1 4.62 1 7 C-0.98 7.33 -2.96 7.66 -5 8 C-5.33 6.35 -5.66 4.7 -6 3 C-5.195625 2.690625 -4.39125 2.38125 -3.5625 2.0625 C-1.10919595 1.23664655 -1.10919595 1.23664655 0 0 Z " fill="#F5F5F5" transform="translate(64,142)"/>
<path d="M0 0 C0.66 0 1.32 0 2 0 C2.66 0.99 3.32 1.98 4 3 C2.90181099 6.29456702 2.08996146 7.45501927 -1 9 C-4 4.25 -4 4.25 -4 2 C-2.68 2.33 -1.36 2.66 0 3 C0 2.01 0 1.02 0 0 Z " fill="#F4F4F4" transform="translate(73,343)"/>
<path d="M0 0 C0.66 0.33 1.32 0.66 2 1 C2 1.99 2 2.98 2 4 C2.66 4 3.32 4 4 4 C4 4.99 4 5.98 4 7 C3.34 6.67 2.68 6.34 2 6 C1.67 6.33 1.34 6.66 1 7 C-1 6 -3 5 -5 4 C-4.34 4.66 -3.68 5.32 -3 6 C-2.67 6.66 -2.34 7.32 -2 8 C-3.32 7.67 -4.64 7.34 -6 7 C-6 5.68 -6 4.36 -6 3 C-4.68 3 -3.36 3 -2 3 C-1.67 2.34 -1.34 1.68 -1 1 C-0.67 0.67 -0.34 0.34 0 0 Z " fill="#F3F3F3" transform="translate(274,142)"/>
<path d="M0 0 C0.66 0 1.32 0 2 0 C2.66 0.99 3.32 1.98 4 3 C3.67 3.99 3.34 4.98 3 6 C2.34 6 1.68 6 1 6 C1 6.99 1 7.98 1 9 C0.34 9 -0.32 9 -1 9 C-4 4.61538462 -4 4.61538462 -4 2 C-2.68 2.33 -1.36 2.66 0 3 C0 2.01 0 1.02 0 0 Z " fill="#F4F4F4" transform="translate(73,64)"/>
<path d="M0 0 C0.78375 0.639375 1.5675 1.27875 2.375 1.9375 C4.79539281 3.98142313 4.79539281 3.98142313 7 5 C2.25 8 2.25 8 0 8 C-0.66 5.69 -1.32 3.38 -2 1 C-1.34 0.67 -0.68 0.34 0 0 Z " fill="#F5F5F5" transform="translate(52,216)"/>
<path d="M0 0 C0 0.99 0 1.98 0 3 C-0.66 3 -1.32 3 -2 3 C-2.33 3.66 -2.66 4.32 -3 5 C-4.32 4.67 -5.64 4.34 -7 4 C-7.33 2.68 -7.66 1.36 -8 0 C-4.71303767 -0.79953138 -3.28976808 -1.09658936 0 0 Z " fill="#FAFAFA" transform="translate(271,285)"/>
<path d="M0 0 C0 3.12900213 -0.42451317 4.37418862 -2 7 C-2.99 7.495 -2.99 7.495 -4 8 C-4 8.99 -4 9.98 -4 11 C-5.32 10.34 -6.64 9.68 -8 9 C-7.04270084 7.87411986 -6.08412105 6.7493285 -5.125 5.625 C-4.59132813 4.99851563 -4.05765625 4.37203125 -3.5078125 3.7265625 C-2.38567993 2.44163349 -1.20628025 1.20628025 0 0 Z " fill="#C8833B" transform="translate(90,124)"/>
<path d="M0 0 C1.98 1.65 3.96 3.3 6 5 C5.67 5.66 5.34 6.32 5 7 C4.34 7 3.68 7 3 7 C2.67 6.67 2.34 6.34 2 6 C1.67 6.99 1.34 7.98 1 9 C-0.41377341 6.36095629 -1.37240135 3.92879371 -2 1 C-1.34 0.67 -0.68 0.34 0 0 Z " fill="#F4F4F4" transform="translate(52,146)"/>
<path d="M0 0 C1.5 1.375 1.5 1.375 3 3 C3 3.66 3 4.32 3 5 C4.32 4.67 5.64 4.34 7 4 C7 4.66 7 5.32 7 6 C5.02 6.66 3.04 7.32 1 8 C-0.5625 6.1875 -0.5625 6.1875 -2 4 C-1.67 3.01 -1.34 2.02 -1 1 C-0.67 1.33 -0.34 1.66 0 2 C0 1.34 0 0.68 0 0 Z " fill="#F4F4F4" transform="translate(52,355)"/>
<path d="M0 0 C1.5 1.375 1.5 1.375 3 3 C3 3.66 3 4.32 3 5 C4.32 4.67 5.64 4.34 7 4 C5 7 5 7 2.875 7.6875 C2.25625 7.790625 1.6375 7.89375 1 8 C-0.5625 6.1875 -0.5625 6.1875 -2 4 C-1.67 3.01 -1.34 2.02 -1 1 C-0.67 1.33 -0.34 1.66 0 2 C0 1.34 0 0.68 0 0 Z " fill="#F4F4F4" transform="translate(157,146)"/>
<path d="M0 0 C0.33 0.99 0.66 1.98 1 3 C-2.3 5.97 -5.6 8.94 -9 12 C-9.66 11.67 -10.32 11.34 -11 11 C-7.37 7.37 -3.74 3.74 0 0 Z " fill="#CB8842" transform="translate(133,81)"/>
<path d="M0 0 C0.99 0.33 1.98 0.66 3 1 C2.07347299 2.17539996 1.13336613 3.34010577 0.1875 4.5 C-0.33457031 5.1496875 -0.85664063 5.799375 -1.39453125 6.46875 C-3 8 -3 8 -6 8 C-5.25 5.5625 -5.25 5.5625 -4 3 C-1.875 2.1875 -1.875 2.1875 0 2 C0 1.34 0 0.68 0 0 Z " fill="#D69544" transform="translate(269,65)"/>
<path d="M0 0 C2.62187494 1.04874998 3.79371361 1.64931313 5.25 4.125 C5.4975 4.74375 5.745 5.3625 6 6 C4.02 6 2.04 6 0 6 C0 4.02 0 2.04 0 0 Z " fill="#F5F5F5" transform="translate(256,289)"/>
<path d="M0 0 C0.99 0.33 1.98 0.66 3 1 C2.01 1.495 2.01 1.495 1 2 C1 2.66 1 3.32 1 4 C-0.98 4.66 -2.96 5.32 -5 6 C-5 5.01 -5 4.02 -5 3 C-5.66 2.67 -6.32 2.34 -7 2 C-5.1875 1.375 -5.1875 1.375 -3 1 C-2.01 1.66 -1.02 2.32 0 3 C0 2.01 0 1.02 0 0 Z " fill="#F4F4F4" transform="translate(293,133)"/>
<path d="M0 0 C0.66 0 1.32 0 2 0 C2.66 1.98 3.32 3.96 4 6 C1.33579484 6 -0.52260646 5.90837763 -3 5 C-3.33 4.01 -3.66 3.02 -4 2 C-2.68 2.33 -1.36 2.66 0 3 C0 2.01 0 1.02 0 0 Z " fill="#F3F3F3" transform="translate(178,343)"/>
<path d="M0 0 C2.50037734 2.17424117 3.43628586 3.73045798 4 7 C3.01 6.67 2.02 6.34 1 6 C0.01 6.33 -0.98 6.66 -2 7 C-2.66 5.68 -3.32 4.36 -4 3 C-2.68 3.33 -1.36 3.66 0 4 C0 2.68 0 1.36 0 0 Z " fill="#F3F3F3" transform="translate(283,133)"/>
<path d="M0 0 C1.5 1.375 1.5 1.375 3 3 C3 3.66 3 4.32 3 5 C4.32 4.67 5.64 4.34 7 4 C7 4.66 7 5.32 7 6 C5.125 6.625 5.125 6.625 3 7 C2.34 6.34 1.68 5.68 1 5 C0.67 5.66 0.34 6.32 0 7 C-0.66 5.35 -1.32 3.7 -2 2 C-1.34 1.34 -0.68 0.68 0 0 Z " fill="#F4F4F2" transform="translate(262,76)"/>
<path d="M0 0 C1 2 1 2 0.0625 5.125 C-0.288125 6.07375 -0.63875 7.0225 -1 8 C-2.32 7.67 -3.64 7.34 -5 7 C-4.60196439 4.11424181 -4.20990931 3.17810487 -1.9375 1.25 C-1.298125 0.8375 -0.65875 0.425 0 0 Z " fill="#F4F4F4" transform="translate(196,335)"/>
<path d="M0 0 C1.67542976 0.28604898 3.34385343 0.61781233 5 1 C4.34 2.32 3.68 3.64 3 5 C2.01 5 1.02 5 0 5 C-0.5625 3.0625 -0.5625 3.0625 -1 1 C-0.67 0.67 -0.34 0.34 0 0 Z " fill="#F5F5F5" transform="translate(277,140)"/>
<path d="M0 0 C2 3.75 2 3.75 2 6 C0.68 6.33 -0.64 6.66 -2 7 C-2.66 6.01 -3.32 5.02 -4 4 C-2.68 3.34 -1.36 2.68 0 2 C0 1.34 0 0.68 0 0 Z " fill="#F5F5F5" transform="translate(194,127)"/>
<path d="M0 0 C0.99 0.33 1.98 0.66 3 1 C3.6875 3.0625 3.6875 3.0625 4 5 C2.35 5 0.7 5 -1 5 C-0.67 3.35 -0.34 1.7 0 0 Z " fill="#F6F6F6" transform="translate(261,146)"/>
<path d="M0 0 C2.0625 0.4375 2.0625 0.4375 4 1 C3.67 2.32 3.34 3.64 3 5 C2.01 5 1.02 5 0 5 C-0.5625 3.0625 -0.5625 3.0625 -1 1 C-0.67 0.67 -0.34 0.34 0 0 Z " fill="#F5F5F5" transform="translate(172,140)"/>
<path d="M0 0 C3.875 1.75 3.875 1.75 5 4 C3.68 4 2.36 4 1 4 C0.67 4.66 0.34 5.32 0 6 C-0.66 4.68 -1.32 3.36 -2 2 C-1.34 1.34 -0.68 0.68 0 0 Z " fill="#F4F4F2" transform="translate(257,81)"/>
<path d="M0 0 C2.86724686 0.57344937 3.8614515 0.8614515 6 3 C5.34 3.66 4.68 4.32 4 5 C3.01 5 2.02 5 1 5 C0.67 3.35 0.34 1.7 0 0 Z " fill="#F5F5F5" transform="translate(182,343)"/>
<path d="M0 0 C1.32 0.33 2.64 0.66 4 1 C4 2.32 4 3.64 4 5 C2.68 4.67 1.36 4.34 0 4 C0 2.68 0 1.36 0 0 Z " fill="#F5F5F5" transform="translate(86,338)"/>
<path d="M0 0 C0.66 1.32 1.32 2.64 2 4 C0.68 4.99 -0.64 5.98 -2 7 C-2.33 6.01 -2.66 5.02 -3 4 C-2.34 4 -1.68 4 -1 4 C-1.33 3.01 -1.66 2.02 -2 1 C-1.34 0.67 -0.68 0.34 0 0 Z " fill="#F5F5F5" transform="translate(91,266)"/>
</svg>
